<svg xmlns="http://www.w3.org/2000/svg" width="1267.668" height="959.18" viewBox="0 0 1267.668 959.18"><g id="Group_261" data-name="Group 261" transform="translate(-244.152 -109.225)"><g id="background"><g id="Group_2" data-name="Group 2"><g id="Group_1" data-name="Group 1"><path id="Path_1" data-name="Path 1" d="M284.536,372.605c17.8-14.5,41.9-16.6,63.9-12.6,23.5,4.2,44.9,15.5,66.6,25,22.4,9.9,45.2,17,69.8,18.2,24.5,1.3,49-2.2,72.8-8.2,49.7-12.5,95.3-36.5,143-54.6,23.9-9.1,48.6-17,74-20.6a165.5,165.5,0,0,1,41.6-1c13.2,1.4,26.1,4.5,39,7.7,28.5,7.1,56.9,13.3,86.1,16.8a598.782,598.782,0,0,0,90.8,3.8c1.9-.1,1.9-3.1,0-3a587.83,587.83,0,0,1-163.4-17.2c-25.5-6.4-50.8-13-77.3-11.7-25.7,1.3-51.1,8.1-75.3,16.4-48.5,16.7-94.1,41.2-143.3,56.1-25,7.5-50.9,12.7-77.1,12.8-26.6.1-51.6-6.1-75.9-16.7-24-10.4-47.5-23.3-73.6-27.3-22.2-3.4-45.9-.7-63.8,13.9-1.5,1.3.6,3.5,2.1,2.2Z" fill="#ebf1fd"></path></g></g><g id="Group_4" data-name="Group 4"><g id="Group_3" data-name="Group 3"><path id="Path_2" data-name="Path 2" d="M823.136,281.2c69.3,29.9,148,24.9,218.9,3.2,38.4-11.8,76.6-27.6,117.5-27.5,41.2.1,80.3,14.5,120.6,20.9,36.6,5.8,76.9,5.1,108.3-16.9,1.6-1.1.1-3.7-1.5-2.6-29,20.3-65.8,22.1-99.8,17.5-38.5-5.2-75.5-18.6-114.4-21.4s-75.6,8.9-112.1,20.9c-36.4,11.9-73.2,21.2-111.5,23.4-42.4,2.5-85.3-3.2-124.4-20.1-1.8-.8-3.3,1.8-1.6,2.6Z" fill="#ebf1fd"></path></g></g><g id="Group_6" data-name="Group 6"><g id="Group_5" data-name="Group 5"><path id="Path_3" data-name="Path 3" d="M246.337,530.505a154.675,154.675,0,0,1,74.6-27.8,149.561,149.561,0,0,1,40.1,1.5c13.7,2.4,26.9,7,40,11.6,24.3,8.4,48.4,14.8,74,8.9,22.1-5.1,42.1-16.6,61.7-27.5,23.1-12.9,47.1-26.1,73.9-28.5,1.9-.2,1.9-3.2,0-3-47.8,4.3-83.7,40.2-128.3,53.9a98.458,98.458,0,0,1-34.9,4.6c-14.5-.9-28.6-5.4-42.2-10.1-13.7-4.7-27.4-9.8-41.8-12.5a153.091,153.091,0,0,0-37.6-2.2,156.7,156.7,0,0,0-81,28.6c-1.6,1-.1,3.6,1.5,2.5Z" fill="#ebf1fd"></path></g></g><g id="Group_8" data-name="Group 8"><g id="Group_7" data-name="Group 7"><path id="Path_4" data-name="Path 4" d="M511.437,568.905c38.9-41.1,96.1-57.9,151.4-58.4,32.1-.3,64.1,4.3,95.4,11,29.8,6.3,58.7,14.5,89.5,10.4,32.2-4.3,62.3-18.1,91.1-32.6,1.7-.9.2-3.5-1.5-2.6-27.4,13.8-55.9,26.9-86.4,31.7a150.569,150.569,0,0,1-46.9-.3c-15.8-2.5-31.2-6.7-46.9-10-57.2-12-118.1-17.1-174.3,2.4-27.7,9.6-53.3,24.9-73.5,46.2-1.3,1.5.8,3.6,2.1,2.2Z" fill="#ebf1fd"></path></g></g><g id="Group_10" data-name="Group 10"><g id="Group_9" data-name="Group 9"><path id="Path_5" data-name="Path 5" d="M974.937,598.8c16.3,5.7,33,.4,47.9-6.7,16.7-8,32.4-17.9,49.5-25s35.5-11.9,54.1-9.6c17,2.1,32.7,9.7,47.6,17.8,14.1,7.7,28,16.1,43,22a137.024,137.024,0,0,0,52.6,9.2c36.7-.8,67.9-19.1,101.4-31.5,31.3-11.6,73-16.8,98.1,10.4,1.3,1.4,3.4-.7,2.1-2.1-19.7-21.3-51.1-23.7-78.1-18-35.2,7.4-65.6,28.9-101,35.8a135.5,135.5,0,0,1-57.4-1.3c-17.4-4.2-33-12.4-48.6-21.1-14.1-7.9-28.4-16.1-43.9-20.8a92.344,92.344,0,0,0-49.2-1c-19.9,4.9-38.2,14.6-56.1,24.4-18.5,10-39.9,22.2-61.4,14.7-1.6-.7-2.4,2.2-.6,2.8Z" fill="#ebf1fd"></path></g></g><g id="Group_12" data-name="Group 12"><g id="Group_11" data-name="Group 11"><path id="Path_6" data-name="Path 6" d="M1238.237,647.005c41.4,2.5,75.5-25.6,114.6-34.1,10.4-2.3,21.4-3.3,32-1.5,9.5,1.6,18.1,5.5,26.3,10.5,14.1,8.6,27.8,19.7,45,20.9,20.9,1.4,39.4-11.6,55-23.8,1.5-1.2-.6-3.3-2.1-2.1-15.2,11.8-33.4,24.7-53.8,22.8-17.7-1.6-31.7-14.4-46.6-22.7-34.3-19.2-71-4.1-103.9,10.4-21.1,9.2-43,18.1-66.4,16.7-2-.2-2,2.8-.1,2.9Z" fill="#ebf1fd"></path></g></g><g id="Group_14" data-name="Group 14"><g id="Group_13" data-name="Group 13"><path id="Path_7" data-name="Path 7" d="M294.337,838.205a58.723,58.723,0,0,1,55.3-13.9c20.2,5.5,33.2,22.9,49.4,34.9,32.3,23.9,76.3,20.1,111.8,6,41.9-16.6,76.8-46.6,118.6-63.5,20.4-8.3,42.5-13.6,64.7-12.1,21.6,1.5,40,10.8,57.1,23.4,17,12.5,33,27.3,52.9,35.2a76.741,76.741,0,0,0,65.3-4.5c1.7-.9.2-3.5-1.5-2.6a74.312,74.312,0,0,1-66.1,2.9c-17.8-7.9-32.4-21.1-47.9-32.7-15.9-11.9-32.8-21.2-52.8-24-20.6-2.8-41.6.7-61.1,7.2-42.7,14.3-77.9,43.8-118.4,62.7-37.4,17.5-85.5,25.7-121-.6-17.7-13.1-31.6-31.8-54.4-36.2a61.83,61.83,0,0,0-54,15.7c-1.4,1.3.7,3.5,2.1,2.1Z" fill="#ebf1fd"></path></g></g><g id="Group_16" data-name="Group 16"><g id="Group_15" data-name="Group 15"><path id="Path_8" data-name="Path 8" d="M678.536,894.005a89.336,89.336,0,0,1,55.8-14.2c18,1.5,35,8.2,51.5,14.9,16,6.5,32.2,13.3,49.4,16.1,18,2.9,36.2.7,53.5-4.6,20.7-6.4,39.9-16.6,58.8-26.9,1.7-.9.2-3.5-1.5-2.6-34.6,18.7-72.6,38.4-113.2,30.6-33.9-6.5-63.7-27.5-98.6-30.5a91.282,91.282,0,0,0-57.3,14.6c-1.5,1.1,0,3.7,1.6,2.6Z" fill="#ebf1fd"></path></g></g><g id="Group_18" data-name="Group 18"><g id="Group_17" data-name="Group 17"><path id="Path_9" data-name="Path 9" d="M1056.036,961.8a179.815,179.815,0,0,1,77.5-42.6,175.076,175.076,0,0,1,45-5.6c16.9.2,33.7,2.9,50.5,4.5,32.6,3.1,63.9-2.4,94.4-14.3,29.1-11.3,56.5-30.9,87.8-35.7,36.6-5.6,64.9,18.7,88.2,43.6,1.3,1.4,3.4-.7,2.1-2.1-19.2-20.5-41.8-41.7-71-45-32-3.6-61.1,15.2-88.9,28.1-32,14.9-66.5,25.1-102,23.1-17.7-1-35.2-4.2-53-5.1a175.055,175.055,0,0,0-45.1,3.4,181.687,181.687,0,0,0-87.6,45.4c-1.4,1.5.7,3.6,2.1,2.3Z" fill="#ebf1fd"></path></g></g><g id="Group_20" data-name="Group 20"><g id="Group_19" data-name="Group 19"><path id="Path_10" data-name="Path 10" d="M470.536,329.9c28,21.7,64.5,12.1,95,2.1,37.8-12.5,76.1-20.4,116.1-21.2a1.5,1.5,0,0,0,0-3,371.43,371.43,0,0,0-108.1,18.4c-31.7,10.3-71.1,24.8-100.9,1.6-1.5-1.2-3.6.9-2.1,2.1Z" fill="#07104d"></path></g></g><g id="Group_22" data-name="Group 22"><g id="Group_21" data-name="Group 21"><path id="Path_11" data-name="Path 11" d="M740.136,148.1c33.8-2.5,66.4-11.9,99.1-19.8,34-8.3,68.1-13.8,103.2-10,35.4,3.8,69.7,14.5,104.4,22.1,33.4,7.4,67.3,10.8,101.5,9.1a363.522,363.522,0,0,0,112.4-23.8c1.8-.7,1-3.6-.8-2.9-65.3,25.1-136.6,30.4-205,16.2-34.1-7.1-67.5-17.5-102-22.5-33.3-4.8-65.8-2.1-98.6,5.1-38,8.3-75.3,20.5-114.2,23.4-1.9.3-1.9,3.3,0,3.1Z" fill="#07104d"></path></g></g><g id="Group_24" data-name="Group 24"><g id="Group_23" data-name="Group 23"><path id="Path_12" data-name="Path 12" d="M1281.337,398.7c29.2-10.8,59.5,4.6,88.7,7.4a143.3,143.3,0,0,0,46.6-3.6c15-3.6,29.6-8.9,44.9-11.2,16.4-2.5,33.9-1.5,48.1,7.8,1.6,1.1,3.1-1.5,1.5-2.6-25.2-16.4-56-7.6-82.6-.2-16.7,4.7-33.4,8.1-50.8,7.4-16.6-.6-32.5-5.2-48.7-8.6-16.1-3.3-32.7-5.1-48.4.7-1.9.6-1.1,3.5.7,2.9Z" fill="#07104d"></path></g></g><g id="Group_26" data-name="Group 26"><g id="Group_25" data-name="Group 25"><path id="Path_13" data-name="Path 13" d="M262.036,702.1c25.4-22.6,61.2-2.6,89.4,1.7,32.6,5,65.2-4,96.3-12.7a1.5,1.5,0,0,0-.8-2.9c-34.4,9.6-70,19.1-105.7,10.6-26.1-6.2-58-19.4-81.4,1.2-1.4,1.2.7,3.3,2.2,2.1Z" fill="#07104d"></path></g></g><g id="Group_28" data-name="Group 28"><g id="Group_27" data-name="Group 27"><path id="Path_14" data-name="Path 14" d="M581.837,982.905a37.514,37.514,0,0,1,33.2-13.2c7.2.9,13.8,4.2,20.4,7.1a129.354,129.354,0,0,0,16.8,6,125.277,125.277,0,0,0,74.7-2.6c1.8-.6,1-3.5-.8-2.9a122.894,122.894,0,0,1-83.1-.7c-11.6-4.3-22.4-11.2-35.3-10.2a40.989,40.989,0,0,0-28.1,14.3c-1.2,1.6,1,3.7,2.2,2.2Z" fill="#07104d"></path></g></g><g id="Group_30" data-name="Group 30"><g id="Group_29" data-name="Group 29"><path id="Path_15" data-name="Path 15" d="M752.036,974.705a195.558,195.558,0,0,1,55.9-7.8,1.5,1.5,0,0,0,0-3,201.653,201.653,0,0,0-56.7,7.9c-1.8.6-1.1,3.5.8,2.9Z" fill="#07104d"></path></g></g><g id="Group_32" data-name="Group 32"><g id="Group_31" data-name="Group 31"><path id="Path_16" data-name="Path 16" d="M775.837,197.4a619.479,619.479,0,0,1,50.8,43.7c1.4,1.3,3.5-.8,2.1-2.1a635.393,635.393,0,0,0-51.4-44.1c-1.5-1.3-3,1.3-1.5,2.5Z" fill="#07104d"></path></g></g><g id="Group_34" data-name="Group 34"><g id="Group_33" data-name="Group 33"><path id="Path_17" data-name="Path 17" d="M602.437,250.1c1.7-9.4,3.5-18.8,5.2-28.3.4-1.9-2.5-2.7-2.9-.8-1.7,9.4-3.5,18.8-5.2,28.3-.3,1.9,2.6,2.7,2.9.8Z" fill="#07104d"></path></g></g></g><g id="details"><circle id="Ellipse_1" data-name="Ellipse 1" cx="5.8" cy="5.8" r="5.8" transform="translate(1173.236 298.105)" fill="#ff4a36"></circle><circle id="Ellipse_2" data-name="Ellipse 2" cx="6.9" cy="6.9" r="6.9" transform="translate(414.336 774.905)" fill="#ff4a36"></circle><circle id="Ellipse_3" data-name="Ellipse 3" cx="15.8" cy="15.8" r="15.8" transform="translate(372.037 132.005)" fill="#ff4a36"></circle><circle id="Ellipse_4" data-name="Ellipse 4" cx="5.3" cy="5.3" r="5.3" transform="translate(414.236 168.305)" fill="#ff4a36"></circle><circle id="Ellipse_5" data-name="Ellipse 5" cx="11.8" cy="11.8" r="11.8" transform="translate(710.536 1044.805)" fill="#ff4a36"></circle><circle id="Ellipse_6" data-name="Ellipse 6" cx="10.4" cy="10.4" r="10.4" transform="translate(1260.337 163.405)" fill="#ff4a36"></circle><circle id="Ellipse_7" data-name="Ellipse 7" cx="6.4" cy="6.4" r="6.4" transform="translate(1277.636 148.505)" fill="#ff4a36"></circle><circle id="Ellipse_8" data-name="Ellipse 8" cx="15.8" cy="15.8" r="15.8" transform="translate(387.936 115.405)" fill="#3346d2"></circle><circle id="Ellipse_9" data-name="Ellipse 9" cx="7.9" cy="7.9" r="7.9" transform="translate(387.936 782.205)" fill="#3346d2"></circle><circle id="Ellipse_10" data-name="Ellipse 10" cx="7" cy="7" r="7" transform="translate(666.536 1031.505)" fill="#3346d2"></circle><circle id="Ellipse_11" data-name="Ellipse 11" cx="16.6" cy="16.6" r="16.6" transform="translate(1215.737 115.305)" fill="#3346d2"></circle><circle id="Ellipse_12" data-name="Ellipse 12" cx="3.6" cy="3.6" r="3.6" transform="translate(955.436 392.705)" fill="#3346d2"></circle><g id="Group_36" data-name="Group 36"><g id="Group_35" data-name="Group 35"><path id="Path_18" data-name="Path 18" d="M922.136,185.6c-2.1,4.9-4.1,9.9-6.2,14.8-.7,1.8,2.2,2.6,2.9.8,2.1-4.9,4.1-9.9,6.2-14.8.7-1.8-2.2-2.6-2.9-.8Z" fill="#3346d2"></path></g></g><g id="Group_38" data-name="Group 38"><g id="Group_37" data-name="Group 37"><path id="Path_19" data-name="Path 19" d="M921.636,188.005a39.77,39.77,0,0,1,8.5,13.3c.7,1.8,3.6,1,2.9-.8a46.569,46.569,0,0,0-9.3-14.6c-1.3-1.4-3.5.7-2.1,2.1Z" fill="#3346d2"></path></g></g><g id="Group_40" data-name="Group 40"><g id="Group_39" data-name="Group 39"><path id="Path_20" data-name="Path 20" d="M916.737,203.005a111.153,111.153,0,0,0,9.9,15.3c1.2,1.5,3.8,0,2.6-1.5a124.7,124.7,0,0,1-9.9-15.3,1.5,1.5,0,0,0-2.6,1.5Z" fill="#3346d2"></path></g></g><g id="Group_42" data-name="Group 42"><g id="Group_41" data-name="Group 41"><path id="Path_21" data-name="Path 21" d="M930.337,201.505c-1.2,5.6-2.3,11.2-3.5,16.8-.4,1.9,2.5,2.7,2.9.8,1.2-5.6,2.3-11.2,3.5-16.8.4-1.8-2.5-2.6-2.9-.8Z" fill="#3346d2"></path></g></g><g id="Group_44" data-name="Group 44"><g id="Group_43" data-name="Group 43"><path id="Path_22" data-name="Path 22" d="M1203.837,613.705a41.189,41.189,0,0,0-4.7,14.1c-.3,1.9,2.6,2.7,2.9.8a39.345,39.345,0,0,1,4.4-13.3c.9-1.8-1.7-3.3-2.6-1.6Z" fill="#3346d2"></path></g></g><g id="Group_46" data-name="Group 46"><g id="Group_45" data-name="Group 45"><path id="Path_23" data-name="Path 23" d="M1203.636,614.6a132.292,132.292,0,0,0,6.9,15.3c.9,1.7,3.5.2,2.6-1.5a127.963,127.963,0,0,1-6.6-14.6c-.7-1.8-3.6-1-2.9.8Z" fill="#3346d2"></path></g></g><g id="Group_48" data-name="Group 48"><g id="Group_47" data-name="Group 47"><path id="Path_24" data-name="Path 24" d="M1198.536,629.905c2.6,3.7,5.1,7.4,7.7,11.1,1.1,1.6,3.7.1,2.6-1.5-2.6-3.7-5.1-7.4-7.7-11.1-1.1-1.6-3.7-.1-2.6,1.5Z" fill="#3346d2"></path></g></g><g id="Group_50" data-name="Group 50"><g id="Group_49" data-name="Group 49"><path id="Path_25" data-name="Path 25" d="M1209.437,629.405a16.243,16.243,0,0,0-3.1,9.7,1.5,1.5,0,0,0,3,0,13.455,13.455,0,0,1,2.7-8.2c1.1-1.6-1.5-3.1-2.6-1.5Z" fill="#3346d2"></path></g></g><g id="Group_52" data-name="Group 52"><g id="Group_51" data-name="Group 51"><path id="Path_26" data-name="Path 26" d="M367.337,896.8c-2.7,5.9-5.4,11.7-8.1,17.6-.8,1.7,1.8,3.3,2.6,1.5,2.7-5.9,5.4-11.7,8.1-17.6.8-1.7-1.7-3.2-2.6-1.5Z" fill="#3346d2"></path></g></g><g id="Group_54" data-name="Group 54"><g id="Group_53" data-name="Group 53"><path id="Path_27" data-name="Path 27" d="M367.837,897.6l7.8,18.6c.7,1.8,3.6,1,2.9-.8l-7.8-18.6c-.7-1.8-3.6-1-2.9.8Z" fill="#3346d2"></path></g></g><g id="Group_56" data-name="Group 56"><g id="Group_55" data-name="Group 55"><path id="Path_28" data-name="Path 28" d="M358.536,917.1c2.7,5.3,5.3,10.7,8,16a1.573,1.573,0,0,0,2.4.3c2.1-1.7,3.1-4.6,4.2-6.9q2.4-4.8,4.8-9.6c.9-1.7-1.7-3.2-2.6-1.5-1.4,2.8-2.9,5.6-4.3,8.4-1.2,2.4-2.3,5.7-4.4,7.4l2.4.3c-2.7-5.3-5.3-10.7-8-16-.8-1.6-3.4-.1-2.5,1.6Z" fill="#3346d2"></path></g></g><g id="Group_58" data-name="Group 58"><g id="Group_57" data-name="Group 57"><path id="Path_29" data-name="Path 29" d="M1373.837,432.005a55.949,55.949,0,0,0-5.9,18.7c-.3,1.9,2.7,1.9,3,0a51.527,51.527,0,0,1,5.4-17.2c1-1.7-1.6-3.2-2.5-1.5Z" fill="#3346d2"></path></g></g><g id="Group_60" data-name="Group 60"><g id="Group_59" data-name="Group 59"><path id="Path_30" data-name="Path 30" d="M1373.437,435.505c3.1,6,6.1,12,9.2,18,.9,1.7,3.5.2,2.6-1.5-3.1-6-6.1-12-9.2-18-.9-1.7-3.5-.2-2.6,1.5Z" fill="#3346d2"></path></g></g><g id="Group_62" data-name="Group 62"><g id="Group_61" data-name="Group 61"><path id="Path_31" data-name="Path 31" d="M1368.136,451.105a94.683,94.683,0,0,0,9.1,16.9c1.1,1.6,3.7.1,2.6-1.5a84.747,84.747,0,0,1-8.8-16.2c-.7-1.7-3.6-.9-2.9.8Z" fill="#3346d2"></path></g></g><g id="Group_64" data-name="Group 64"><g id="Group_63" data-name="Group 63"><path id="Path_32" data-name="Path 32" d="M1381.737,452.4a123.58,123.58,0,0,0-4.3,17.2c-.3,1.9,2.6,2.7,2.9.8a116.936,116.936,0,0,1,4.3-17.2c.6-1.8-2.3-2.6-2.9-.8Z" fill="#3346d2"></path></g></g><g id="Group_66" data-name="Group 66"><g id="Group_65" data-name="Group 65"><path id="Path_33" data-name="Path 33" d="M1362.237,917.505c-1.2,4-2.3,7.9-3.5,11.9a1.505,1.505,0,0,0,2.9.8c1.2-4,2.3-7.9,3.5-11.9.6-1.9-2.3-2.7-2.9-.8Z" fill="#3346d2"></path></g></g><g id="Group_68" data-name="Group 68"><g id="Group_67" data-name="Group 67"><path id="Path_34" data-name="Path 34" d="M1362.036,919.705c1.8,4,3.7,8,5.5,11.9.8,1.8,3.4.2,2.6-1.5-1.8-4-3.7-8-5.5-11.9-.8-1.8-3.4-.3-2.6,1.5Z" fill="#3346d2"></path></g></g><g id="Group_70" data-name="Group 70"><g id="Group_69" data-name="Group 69"><path id="Path_35" data-name="Path 35" d="M1359.536,931.3a26.855,26.855,0,0,0,6.2,12.5c1.3,1.5,3.4-.7,2.1-2.1a23.578,23.578,0,0,1-5.4-11.1c-.4-2-3.3-1.2-2.9.7Z" fill="#3346d2"></path></g></g><g id="Group_72" data-name="Group 72"><g id="Group_71" data-name="Group 71"><path id="Path_36" data-name="Path 36" d="M1367.437,930.905a40.007,40.007,0,0,0-1.8,12.8c.1,1.9,3.1,1.9,3,0a34.887,34.887,0,0,1,1.7-12c.6-1.8-2.3-2.6-2.9-.8Z" fill="#3346d2"></path></g></g><g id="Group_74" data-name="Group 74"><g id="Group_73" data-name="Group 73"><path id="Path_37" data-name="Path 37" d="M329.637,389.9c-2.2,4.8-4.3,9.6-6.5,14.4-.8,1.7,1.8,3.3,2.6,1.5,2.2-4.8,4.3-9.6,6.5-14.4.8-1.7-1.8-3.3-2.6-1.5Z" fill="#3346d2"></path></g></g><g id="Group_76" data-name="Group 76"><g id="Group_75" data-name="Group 75"><path id="Path_38" data-name="Path 38" d="M323.536,406.8c2.3,5.9,4.5,11.7,6.8,17.6.7,1.8,3.6,1,2.9-.8-2.3-5.9-4.5-11.7-6.8-17.6-.7-1.8-3.6-1-2.9.8Z" fill="#3346d2"></path></g></g><g id="Group_78" data-name="Group 78"><g id="Group_77" data-name="Group 77"><path id="Path_39" data-name="Path 39" d="M329.637,390.105c3.1,5.4,6.2,10.9,9.3,16.3a1.5,1.5,0,0,0,2.6-1.5c-3.1-5.4-6.2-10.9-9.3-16.3a1.5,1.5,0,0,0-2.6,1.5Z" fill="#3346d2"></path></g></g><g id="Group_80" data-name="Group 80"><g id="Group_79" data-name="Group 79"><path id="Path_40" data-name="Path 40" d="M339.637,405.105a161.76,161.76,0,0,0-8.4,18.5c-.7,1.8,2.2,2.6,2.9.8a142.934,142.934,0,0,1,8.1-17.8c.9-1.7-1.7-3.2-2.6-1.5Z" fill="#3346d2"></path></g></g><g id="Group_82" data-name="Group 82"><g id="Group_81" data-name="Group 81"><path id="Path_41" data-name="Path 41" d="M1083.437,482.105a11.056,11.056,0,0,1,10.2-6.2c3.6.1,6.3,2.6,9.5,3.8,5.6,2,7.3-1.6,11.5-4.3,5.7-3.8,11.2,4.7,17.3,4.6,3.5-.1,6.4-1.8,6.5-5.5-.8.4-1.5.9-2.3,1.3,3.1,1.6,6.2,3.2,9.2,4.9,1.7.9,3.2-1.7,1.5-2.6-3.1-1.6-6.2-3.2-9.2-4.9a1.571,1.571,0,0,0-2.3,1.3c-.3,7.1-14.1-3-16.7-3.3-5.9-.8-8.2,6.5-13.3,5.7-5.4-.9-8.8-4.8-14.6-3.8a13.771,13.771,0,0,0-10,7.5c-.7,1.7,1.8,3.2,2.7,1.5Z" fill="#3346d2"></path></g></g><g id="Group_84" data-name="Group 84"><g id="Group_83" data-name="Group 83"><path id="Path_42" data-name="Path 42" d="M1121.737,461.8c4.5-5,11.6,1.3,16.7,1.9,5.9.7,10.5-5.6,16.2-2.4,4.7,2.7,13.3,9.1,16.7.9.7-1.8-2.2-2.6-2.9-.8-2.4,5.8-11-2.3-13.9-3.5-3.9-1.7-6.5-.3-10,1.4-4.2,2-7.2,1.3-11.2-.5a21.57,21.57,0,0,0-5.6-1.8c-3.1-.4-5.9.2-8.1,2.6-1.3,1.5.8,3.6,2.1,2.2Z" fill="#3346d2"></path></g></g><g id="Group_86" data-name="Group 86"><g id="Group_85" data-name="Group 85"><path id="Path_43" data-name="Path 43" d="M1040.536,225.9q2.1-3.9,4.8-2.1a13.446,13.446,0,0,1,2.4,1.2c.9.4,1.8,1,2.7,1.3a8.75,8.75,0,0,0,4.8.3c4.3-1.2,6.5-6.6,11.1-6.5,4.3.1,7.4,4.2,11.9,2.1,1.9-.9,3.2-2.5,5-3.5a11.088,11.088,0,0,1,12.3,1.4c1.5,1.2,3.6-.9,2.1-2.1-4.5-3.7-10.7-4.8-15.9-1.9-2.3,1.3-4.2,4.1-7.2,3.7-1.7-.2-3.2-1.4-4.8-2-2.4-.9-4.6-1.2-7-.1-3,1.4-5,5.3-8.3,6-4.2.9-7-3.4-10.9-3.5-3.7-.1-8,3.5-5.5,7.2,1,1.6,3.6.1,2.5-1.5Z" fill="#ff4a36"></path></g></g><g id="Group_88" data-name="Group 88"><g id="Group_87" data-name="Group 87"><path id="Path_44" data-name="Path 44" d="M1073.737,208.205c1.2-6.5,12.5-.2,16.5-.9,2.6-.4,4.5-2.2,6.9-3.1a11.978,11.978,0,0,1,11,1.2,1.5,1.5,0,0,0,1.5-2.6,15.692,15.692,0,0,0-9.6-2.4,14.345,14.345,0,0,0-4.2,1c-4,1.7-5.6,3.6-10.6,2.4-4.8-1.2-13-3.6-14.3,3.6-.5,1.9,2.4,2.7,2.8.8Z" fill="#ff4a36"></path></g></g><g id="Group_90" data-name="Group 90"><g id="Group_89" data-name="Group 89"><path id="Path_45" data-name="Path 45" d="M316.637,569.6c1.3-6.3,10,2.3,11.7,3.4,1.9,1.3,4,2.2,6.3,1.7,3-.5,5.3-3,8.4-3.7a14.634,14.634,0,0,1,13.6,4.1c1.4,1.4,3.5-.8,2.1-2.1a17.4,17.4,0,0,0-11.3-5.3,15.954,15.954,0,0,0-6.5.8c-3.3,1.1-5.9,4.3-9.9,2.7-4.2-1.7-5.8-6-10.6-6.5-3.1-.3-6,.9-6.6,4.1-.5,1.9,2.4,2.7,2.8.8Z" fill="#ff4a36"></path></g></g><g id="Group_92" data-name="Group 92"><g id="Group_91" data-name="Group 91"><path id="Path_46" data-name="Path 46" d="M349.937,562.405c2.2-3,12.3,3,15.2,3.7a40.4,40.4,0,0,0,14.3.5c1.9-.3,1.1-3.2-.8-2.9-8.3,1.1-14.7-1.1-22.2-4.1-3.4-1.3-6.8-1.8-9.1,1.3-1.1,1.5,1.5,3,2.6,1.5Z" fill="#ff4a36"></path></g></g><g id="Group_94" data-name="Group 94"><g id="Group_93" data-name="Group 93"><path id="Path_47" data-name="Path 47" d="M593.737,772.005a8.4,8.4,0,0,1,7.2-4.1c2.6,0,4.2,1.6,6.5,2.3a6.594,6.594,0,0,0,6.2-1c3.9-2.6,5.8-5.8,11.1-5.6,4.8.1,9.4,2.4,13.6,4.5,1.7.9,3.2-1.7,1.5-2.6-7.9-4-17.5-7.8-25.1-1.3-1.7,1.4-1.9,1.8-4.5,2.3-2.9.6-2.6.2-4.8-.7a11.285,11.285,0,0,0-14.3,4.6,1.529,1.529,0,0,0,2.6,1.6Z" fill="#ff4a36"></path></g></g><g id="Group_96" data-name="Group 96"><g id="Group_95" data-name="Group 95"><path id="Path_48" data-name="Path 48" d="M627.036,777.8c4.7-4.1,13.6,4.5,19.4,3.7,3.5-.5,5.1-3.1,7.4-5.5a12.548,12.548,0,0,1,16.4-1.9c1.6,1,3.1-1.5,1.5-2.6a15.711,15.711,0,0,0-13-2,15.461,15.461,0,0,0-5.4,2.8c-2.4,2-3.9,5.6-7.3,6.2-7.3,1.3-14.2-8.9-21.1-2.8-1.4,1.3.7,3.4,2.1,2.1Z" fill="#ff4a36"></path></g></g><g id="Group_98" data-name="Group 98"><g id="Group_97" data-name="Group 97"><path id="Path_49" data-name="Path 49" d="M490.637,136.4a10.168,10.168,0,0,1,5.9-7.3c2.8-1.2,5.1-.4,8-.5a10.12,10.12,0,0,0,7.5-4.2c2.9-3.6,4.8-7.3,8.9-9.7a19.035,19.035,0,0,1,15.3-1.6c1.9.6,2.6-2.3.8-2.9-9.6-2.9-19.1.8-24.9,8.9-2.3,3.2-4,6.4-8.4,6.5-2.7.1-5-.5-7.6.4a12.976,12.976,0,0,0-8.4,9.6,1.5,1.5,0,0,0,2.9.8Z" fill="#ff4a36"></path></g></g><g id="Group_100" data-name="Group 100"><g id="Group_99" data-name="Group 99"><path id="Path_50" data-name="Path 50" d="M504.736,147.9c-4.3-11.4,16.3-10.8,22.5-13,7.7-2.7,14.3-7.5,20.8-12.3,1.5-1.1,0-3.7-1.5-2.6a112.243,112.243,0,0,1-13.7,9.1c-6,3.2-11.7,4.2-18.2,5.2-6.9,1.1-15.9,5.9-12.7,14.3.6,1.8,3.5,1.1,2.8-.7Z" fill="#ff4a36"></path></g></g></g></g></svg>