<svg xmlns="http://www.w3.org/2000/svg" width="404.104" height="316.058" viewBox="0 0 404.104 316.058"><g id="Group_982" data-name="Group 982" transform="translate(56 52)"><g id="Group_510" data-name="Group 510" transform="translate(-56 66.079)"><g id="Group_416" data-name="Group 416" transform="translate(276.906 74.151)"><g id="Group_413" data-name="Group 413" opacity="0.2"><g id="Group_409" data-name="Group 409"><g id="Group_408" data-name="Group 408"><path id="Path_90" data-name="Path 90" d="M331.155,269.674c11-10.2,30.5-9,40.179,2.463,3.816,4.522,6.4,10.44,11.644,13.183,8.038,4.206,17.763-1.1,26.8-.331,10.6.9,19.3,11.656,17.979,22.212-.6,4.754-2.851,9.832-.616,14.07,2.853,5.409,11.1,5.624,14.569,10.661,3.132,4.547.691,11.262-3.851,14.4s-10.415,3.523-15.931,3.273-11.118-1.02-16.5.2c-5.925,1.345-11.045,4.982-16.685,7.243-13.574,5.441-29.465,2.41-42.038-5.057s-22.3-18.894-30.78-30.8" transform="translate(-315.925 -262.726)" fill="#e8505b"></path></g></g><g id="Group_412" data-name="Group 412" opacity="0.8"><g id="Group_411" data-name="Group 411"><g id="Group_410" data-name="Group 410"><path id="Path_91" data-name="Path 91" d="M331.155,269.674c11-10.2,30.5-9,40.179,2.463,3.816,4.522,6.4,10.44,11.644,13.183,8.038,4.206,17.763-1.1,26.8-.331,10.6.9,19.3,11.656,17.979,22.212-.6,4.754-2.851,9.832-.616,14.07,2.853,5.409,11.1,5.624,14.569,10.661,3.132,4.547.691,11.262-3.851,14.4s-10.415,3.523-15.931,3.273-11.118-1.02-16.5.2c-5.925,1.345-11.045,4.982-16.685,7.243-13.574,5.441-29.465,2.41-42.038-5.057s-22.3-18.894-30.78-30.8" transform="translate(-315.925 -262.726)" fill="#ff4b34"></path></g></g></g></g><g id="Group_415" data-name="Group 415" transform="translate(11.217 14.94)"><g id="Group_414" data-name="Group 414"><path id="Path_92" data-name="Path 92" d="M359,283.548c8.95-8.779,25.6-7.544,33.153,2.462,4.615,6.11,7.258,15.448,14.846,16.474,5.146.7,10.02-3.177,15.2-2.779,6.893.53,11.073,8.932,9.3,15.614s-7.654,11.5-13.818,14.626c-21.373,10.854-49.855,5.118-65.36-13.163" transform="translate(-352.321 -277.667)" fill="#ff4b34"></path></g></g></g><g id="Group_509" data-name="Group 509" transform="translate(0 0)"><g id="Group_472" data-name="Group 472" transform="translate(49.97 34.106)"><g id="Group_418" data-name="Group 418" transform="translate(27.102 56.15)"><g id="Group_417" data-name="Group 417"><path id="Path_93" data-name="Path 93" d="M631.386,305.9l11.571-16.4-15.048-10.672-10.541,21.41,13.323,5.514" transform="translate(-617.368 -278.832)" fill="#ffbe9d"></path></g></g><g id="Group_463" data-name="Group 463" transform="translate(0 74.626)"><g id="Group_452" data-name="Group 452" transform="translate(0 0)"><g id="Group_422" data-name="Group 422"><g id="Group_421" data-name="Group 421"><g id="Group_420" data-name="Group 420"><g id="Group_419" data-name="Group 419"><path id="Path_94" data-name="Path 94" d="M656.017,297.308l-8.186,14.772s-17.764-3.36-19.543-.777l28.072,16.9,13.7-22.493Z" transform="translate(-628.288 -297.308)" fill="#434eff"></path></g></g></g></g><g id="Group_427" data-name="Group 427" transform="translate(26.829 18.415)" opacity="0.6"><g id="Group_426" data-name="Group 426" transform="translate(0 0)"><g id="Group_425" data-name="Group 425"><g id="Group_424" data-name="Group 424"><g id="Group_423" data-name="Group 423"><path id="Path_95" data-name="Path 95" d="M642.885,316.09a1.337,1.337,0,0,1,.005,1.785,1.287,1.287,0,0,1-1.77.021,1.412,1.412,0,0,1,.005-1.891,1.334,1.334,0,0,1,1.843.183" transform="translate(-640.76 -315.723)" fill="#fff"></path></g></g></g></g></g><g id="Group_431" data-name="Group 431" transform="translate(0 13.219)" opacity="0.6"><g id="Group_430" data-name="Group 430"><g id="Group_429" data-name="Group 429"><g id="Group_428" data-name="Group 428"><path id="Path_96" data-name="Path 96" d="M668.767,328.2l1.292-2.322-27.4-15.336s-1.577-.208-1.966.757Z" transform="translate(-640.695 -310.527)" fill="#fff"></path></g></g></g></g><g id="Group_436" data-name="Group 436" transform="translate(19.168 14.324)"><g id="Group_435" data-name="Group 435" transform="translate(0 0)"><g id="Group_434" data-name="Group 434"><g id="Group_433" data-name="Group 433"><g id="Group_432" data-name="Group 432"><path id="Path_97" data-name="Path 97" d="M649.121,311.663c-.078.14.57.615.979,1.462.431.836.421,1.639.58,1.66.143.05.432-.893-.082-1.909S649.167,311.52,649.121,311.663Z" transform="translate(-649.115 -311.632)" fill="#263238"></path></g></g></g></g></g><g id="Group_441" data-name="Group 441" transform="translate(15.479 13.782)"><g id="Group_440" data-name="Group 440" transform="translate(0 0)"><g id="Group_439" data-name="Group 439"><g id="Group_438" data-name="Group 438"><g id="Group_437" data-name="Group 437"><path id="Path_98" data-name="Path 98" d="M653.541,311.108c-.111.114.342.7.459,1.565.142.857-.118,1.554.022,1.63.116.1.694-.646.529-1.713S653.623,310.98,653.541,311.108Z" transform="translate(-653.524 -311.09)" fill="#263238"></path></g></g></g></g></g><g id="Group_446" data-name="Group 446" transform="translate(11.672 13.315)"><g id="Group_445" data-name="Group 445" transform="translate(0 0)"><g id="Group_444" data-name="Group 444"><g id="Group_443" data-name="Group 443"><g id="Group_442" data-name="Group 442"><path id="Path_99" data-name="Path 99" d="M657.561,313.625c.107.105.71-.465.81-1.428s-.362-1.647-.488-1.568c-.146.066.028.72-.066,1.509C657.741,312.928,657.433,313.53,657.561,313.625Z" transform="translate(-657.53 -310.623)" fill="#263238"></path></g></g></g></g></g><g id="Group_451" data-name="Group 451" transform="translate(21.413 11.1)"><g id="Group_450" data-name="Group 450" transform="translate(0 0)"><g id="Group_449" data-name="Group 449"><g id="Group_448" data-name="Group 448"><g id="Group_447" data-name="Group 447"><path id="Path_100" data-name="Path 100" d="M645.8,308.5c-.018.159.725.349,1.468.868.754.5,1.2,1.127,1.342,1.053.139-.052-.144-.914-1.028-1.513S645.8,308.356,645.8,308.5Z" transform="translate(-645.802 -308.409)" fill="#263238"></path></g></g></g></g></g></g><g id="Group_457" data-name="Group 457" transform="translate(23.102 7.624)"><g id="Group_456" data-name="Group 456" transform="translate(0 0)"><g id="Group_455" data-name="Group 455"><g id="Group_454" data-name="Group 454"><g id="Group_453" data-name="Group 453"><path id="Path_101" data-name="Path 101" d="M641.61,305.554c-.035.056.455.467,1.411.839a7.339,7.339,0,0,0,1.743.434,7.78,7.78,0,0,0,1.065.058,2.043,2.043,0,0,0,.623-.075.7.7,0,0,0,.5-.692.879.879,0,0,0-.412-.675,2.138,2.138,0,0,0-.571-.244,5.917,5.917,0,0,0-1.054-.227,5.79,5.79,0,0,0-1.809.071,2.737,2.737,0,0,0-1.514.644c.035.082.61-.156,1.573-.255a6.542,6.542,0,0,1,1.679.049,6.106,6.106,0,0,1,.957.237c.344.1.6.251.6.429,0,.067-.011.089-.126.139a1.661,1.661,0,0,1-.457.053,8.6,8.6,0,0,1-1-.022,9.024,9.024,0,0,1-1.673-.3A11.555,11.555,0,0,0,641.61,305.554Z" transform="translate(-641.592 -304.932)" fill="#263238"></path></g></g></g></g></g><g id="Group_462" data-name="Group 462" transform="translate(22.648 3.339)"><g id="Group_461" data-name="Group 461"><g id="Group_460" data-name="Group 460"><g id="Group_459" data-name="Group 459"><g id="Group_458" data-name="Group 458"><path id="Path_102" data-name="Path 102" d="M645.33,305.858c.036.051.6-.277,1.189-1.134a5.362,5.362,0,0,0,.735-1.655A5.463,5.463,0,0,0,647.41,302a1.357,1.357,0,0,0-.47-1.25.764.764,0,0,0-.823.039,2.222,2.222,0,0,0-.455.428,3.667,3.667,0,0,0-.571.946,3.782,3.782,0,0,0-.274,1.814c.111,1.058.584,1.566.624,1.527a13.22,13.22,0,0,1-.23-1.546,3.778,3.778,0,0,1,.35-1.589,3.389,3.389,0,0,1,.515-.8c.224-.272.481-.446.574-.348a.938.938,0,0,1,.214.757,5.385,5.385,0,0,1-.11.971,5.9,5.9,0,0,1-.572,1.567C645.724,305.367,645.269,305.792,645.33,305.858Z" transform="translate(-644.799 -300.647)" fill="#263238"></path></g></g></g></g></g></g><g id="Group_465" data-name="Group 465" transform="translate(28.375 0)"><g id="Group_464" data-name="Group 464"><path id="Path_103" data-name="Path 103" d="M641.684,247.611l-35.936,56.48-19.656-13.363L619.2,222.681" transform="translate(-586.092 -222.681)" fill="#263238"></path></g></g><g id="Group_468" data-name="Group 468" transform="translate(81.046 12.535)"><g id="Group_467" data-name="Group 467"><g id="Group_466" data-name="Group 466"><path id="Path_104" data-name="Path 104" d="M586.8,235.218c-.147.066.924,2.358,1.438,5.394.54,3.032.3,5.551.466,5.563a15.754,15.754,0,0,0-1.9-10.957Z" transform="translate(-586.786 -235.216)" fill="#455a64"></path></g></g></g><g id="Group_471" data-name="Group 471" transform="translate(83.309 12.698)"><g id="Group_470" data-name="Group 470"><g id="Group_469" data-name="Group 469"><path id="Path_105" data-name="Path 105" d="M586.46,235.38c-.157.012-.007,2.48-.41,5.477-.383,3-1.163,5.346-1.014,5.4a18.638,18.638,0,0,0,1.424-10.875Z" transform="translate(-585.017 -235.38)" fill="#455a64"></path></g></g></g></g><g id="Group_499" data-name="Group 499"><g id="Group_474" data-name="Group 474" transform="translate(252.056 51.259)"><g id="Group_473" data-name="Group 473"><path id="Path_106" data-name="Path 106" d="M423.679,247.44l24.655-7.606c29.737,37.869,27.754,79.476-20.121,104.1L401.651,314.16Z" transform="translate(-401.651 -239.834)" fill="#263238"></path></g></g><g id="Group_480" data-name="Group 480" transform="translate(41.093 11.007)"><g id="Group_476" data-name="Group 476" transform="translate(0.241 0.192)"><g id="Group_475" data-name="Group 475"><path id="Path_107" data-name="Path 107" d="M656.708,241.405c15.778,9.2,23.622,28.6,21.7,47.572-2.108,20.822-15.866,41.12-41.083,46.731L467.794,301.816a51.516,51.516,0,0,1-39.372-64.888h0a51.515,51.515,0,0,1,61.541-35.71Z" transform="translate(-426.359 -199.774)" fill="#e0e0e0"></path></g></g><g id="Group_479" data-name="Group 479"><g id="Group_478" data-name="Group 478"><g id="Group_477" data-name="Group 477"><path id="Path_108" data-name="Path 108" d="M656.835,241.405s-.529-.146-1.571-.406l-4.632-1.143L632.8,235.509l-65.615-15.9-45.322-10.956-25.251-6.1-6.558-1.579-3.362-.64c-.563-.1-1.124-.224-1.692-.311l-1.719-.156c-1.148-.093-2.3-.233-3.457-.287l-3.493.025a26.785,26.785,0,0,0-3.5.246l-1.757.182-.88.1-.869.175-3.491.7c-1.158.271-2.289.667-3.439,1-.572.178-1.152.334-1.719.531l-1.672.68-1.676.682a13.031,13.031,0,0,0-1.653.745l-3.235,1.681c-1.067.587-2.065,1.3-3.1,1.948-.51.34-1.044.646-1.536,1.014l-1.453,1.139-1.456,1.142-.728.573-.675.639A52.069,52.069,0,0,0,427.925,238.3a51.454,51.454,0,0,0,1.519,30.9,52.027,52.027,0,0,0,19.662,25.046,50.476,50.476,0,0,0,12.269,6.064c4.313,1.513,8.805,2.17,13.174,3.089l26,5.2,49.681,9.921,87.18,17.387.044.009.041-.01a61.389,61.389,0,0,0,12.873-4.571,56.064,56.064,0,0,0,10.76-7.28,56.738,56.738,0,0,0,8.153-9.206,58.631,58.631,0,0,0,5.494-10.182c.366-.86.645-1.746.967-2.606a25.09,25.09,0,0,0,.847-2.6q.367-1.3.727-2.583.274-1.3.543-2.578a23.791,23.791,0,0,0,.446-2.545q.171-1.269.34-2.513c.091-.831.122-1.66.185-2.478a24.278,24.278,0,0,0,.1-2.431,54.434,54.434,0,0,0-2.466-17.347,49.419,49.419,0,0,0-6.022-12.687,40.533,40.533,0,0,0-6.72-7.843c-.524-.465-1-.928-1.475-1.316l-1.371-1.049-1.169-.891-1.024-.65c-1.218-.771-1.848-1.151-1.848-1.151s.614.419,1.817,1.2l1.011.66,1.157.9,1.359,1.057c.475.392.942.856,1.461,1.324a40.729,40.729,0,0,1,6.654,7.852,49.378,49.378,0,0,1,5.948,12.658,54.28,54.28,0,0,1,2.406,17.273,24.076,24.076,0,0,1-.1,2.419c-.065.813-.1,1.637-.19,2.464q-.171,1.237-.344,2.5a23.8,23.8,0,0,1-.449,2.531q-.27,1.269-.546,2.562l-.729,2.567a24.831,24.831,0,0,1-.847,2.579c-.322.855-.6,1.735-.966,2.589A58.425,58.425,0,0,1,669,314.651a56.475,56.475,0,0,1-8.11,9.127,55.749,55.749,0,0,1-10.69,7.209,61.073,61.073,0,0,1-12.787,4.521h.085L550.33,318.04,500.654,308.1l-26-5.2c-4.383-.922-8.855-1.578-13.109-3.073a49.967,49.967,0,0,1-12.145-6,51.514,51.514,0,0,1-19.467-24.794,50.947,50.947,0,0,1-1.511-30.6,51.575,51.575,0,0,1,15.4-25.283l.667-.633.721-.569,1.443-1.131,1.438-1.129c.487-.365,1.015-.669,1.52-1.005,1.03-.642,2.017-1.349,3.073-1.932l3.2-1.667a13.136,13.136,0,0,1,1.637-.739l1.661-.676,1.655-.675c.562-.2,1.136-.35,1.7-.527,1.139-.327,2.259-.721,3.406-.991l3.457-.7.862-.173.871-.1,1.741-.181a26.636,26.636,0,0,1,3.471-.247l3.461-.027c1.147.053,2.288.191,3.426.282l1.7.152c.562.086,1.118.207,1.676.308l3.334.631L496.5,203l25.248,6.072,45.325,10.891L632.731,235.7l17.863,4.255,4.65,1.094C656.293,241.292,656.835,241.405,656.835,241.405Z" transform="translate(-426.244 -199.582)" fill="#263238"></path></g></g></g></g><g id="Group_482" data-name="Group 482" transform="translate(173.516 131.41)"><g id="Group_481" data-name="Group 481"><path id="Path_109" data-name="Path 109" d="M524.157,335.708l22.356,50.847s-105.5-10.176-101-66.57Z" transform="translate(-445.371 -319.985)" fill="#ff4b34"></path></g></g><g id="Group_484" data-name="Group 484" transform="translate(191.844)"><g id="Group_483" data-name="Group 483"><path id="Path_110" data-name="Path 110" d="M412.976,222.163s50.725-49.226,115.209-28.49l-35.37,47.732Z" transform="translate(-412.976 -188.575)" fill="#ff4b34"></path></g></g><g id="Group_486" data-name="Group 486" transform="translate(0 9.632)"><g id="Group_485" data-name="Group 485"><path id="Path_111" data-name="Path 111" d="M720.029,200.517c-21.768,16.057-35.08,78.566-24.591,98.434-61.7-18.053-74.637-71.023-74.637-71.023C665.4,186.411,720.029,200.517,720.029,200.517Z" transform="translate(-620.801 -198.208)" fill="#ff4b34"></path></g></g><g id="Group_489" data-name="Group 489" transform="translate(284.02 123.878)"><g id="Group_488" data-name="Group 488" transform="translate(0 0)"><g id="Group_487" data-name="Group 487"><path id="Path_112" data-name="Path 112" d="M420.46,312.455c-.109.1,3.284,4.152,7.576,9.061s7.862,8.813,7.97,8.718-3.284-4.151-7.578-9.061S420.568,312.361,420.46,312.455Z" transform="translate(-420.457 -312.453)" fill="#455a64"></path></g></g></g><g id="Group_492" data-name="Group 492" transform="translate(0 39.353)"><g id="Group_491" data-name="Group 491"><g id="Group_490" data-name="Group 490"><path id="Path_113" data-name="Path 113" d="M446.452,227.928s.121.232.381.672.66,1.1,1.166,1.944,1.159,1.912,1.912,3.156l1.223,2.011,1.532,2.2c1.094,1.547,2.284,3.285,3.638,5.151q2.172,2.694,4.707,5.842c.888,1.012,1.848,2.022,2.817,3.084.992,1.04,1.937,2.19,3.055,3.231,2.216,2.1,4.5,4.391,7.154,6.5a96.63,96.63,0,0,0,18.475,12.191,92.957,92.957,0,0,0,11.357,4.86c1.992.731,4.063,1.36,6.091,2.1a61.525,61.525,0,0,0,6.447,1.655c17.482,3.866,36.756,7.83,56.98,12.03,40.47,8.365,77.127,15.816,103.666,21.181l31.435,6.317,8.552,1.688,2.227.426c.5.093.762.128.762.128s-.252-.07-.751-.18l-2.217-.476-8.533-1.785-31.4-6.479L573.493,294.05c-20.223-4.2-39.5-8.151-56.98-11.988a60.807,60.807,0,0,1-6.383-1.625c-2.068-.753-4.117-1.37-6.107-2.1a92.924,92.924,0,0,1-11.317-4.815,96.742,96.742,0,0,1-18.434-12.088c-2.655-2.1-4.937-4.37-7.155-6.454-1.12-1.034-2.066-2.177-3.061-3.209-.971-1.055-1.934-2.058-2.824-3.062q-2.545-3.121-4.73-5.8c-1.363-1.853-2.564-3.58-3.669-5.114q-.82-1.157-1.549-2.184l-1.242-2-1.953-3.126-1.21-1.917C446.6,228.142,446.452,227.928,446.452,227.928Z" transform="translate(-446.452 -227.928)" fill="#263238"></path></g></g></g><g id="Group_495" data-name="Group 495" transform="translate(160.566 30.732)"><g id="Group_494" data-name="Group 494"><g id="Group_493" data-name="Group 493"><path id="Path_114" data-name="Path 114" d="M534.548,317.442a1.014,1.014,0,0,0,.18-.2l.487-.618,1.835-2.408,1.316-1.749c.464-.652.929-1.387,1.449-2.163,1.015-1.568,2.255-3.3,3.387-5.367q.883-1.53,1.849-3.2c.636-1.116,1.2-2.33,1.834-3.558,1.308-2.442,2.44-5.176,3.687-8.027a117.913,117.913,0,0,0,8.758-39.343c.08-3.111.215-6.067.066-8.833-.055-1.382-.048-2.72-.151-4s-.217-2.507-.319-3.68c-.149-2.349-.536-4.446-.79-6.3-.142-.923-.251-1.786-.395-2.572q-.245-1.17-.45-2.143c-.271-1.254-.484-2.243-.639-2.958l-.179-.766a1.074,1.074,0,0,0-.078-.257,1.018,1.018,0,0,0,.026.268c.034.2.076.461.128.777.132.72.313,1.714.543,2.975q.185.972.405,2.145c.129.788.223,1.651.351,2.574.226,1.849.587,3.943.712,6.288q.135,1.755.284,3.669c.092,1.277.075,2.61.12,3.987.131,2.757-.02,5.7-.113,8.8a120.236,120.236,0,0,1-8.723,39.186c-1.23,2.844-2.342,5.574-3.63,8.015-.625,1.228-1.175,2.443-1.8,3.559l-1.814,3.2c-1.108,2.07-2.322,3.813-3.312,5.392-.507.782-.959,1.523-1.41,2.182s-.89,1.236-1.276,1.771l-1.754,2.464-.446.649A1.079,1.079,0,0,0,534.548,317.442Z" transform="translate(-534.547 -219.307)" fill="#263238"></path></g></g></g><g id="Group_498" data-name="Group 498" transform="translate(199.821 76.251)"><g id="Group_497" data-name="Group 497"><g id="Group_496" data-name="Group 496"><path id="Path_115" data-name="Path 115" d="M413.85,264.972l106.324,22.011s.476,10.383-2.132,10.47c-2.185.072-81.236-14.2-106.876-18.836a6.928,6.928,0,0,1-5.3-9.1h0A6.954,6.954,0,0,1,413.85,264.972Z" transform="translate(-405.48 -264.827)" fill="#ff4b34"></path></g></g></g></g><g id="Group_505" data-name="Group 505" transform="translate(101.303 42.735)"><g id="Group_501" data-name="Group 501" transform="translate(0 0.182)"><g id="Group_500" data-name="Group 500" transform="translate(0 0)"><ellipse id="Ellipse_3" data-name="Ellipse 3" cx="23.624" cy="25.414" rx="23.624" ry="25.414" transform="translate(0.067 47.32) rotate(-90.081)" fill="#fafafa"></ellipse></g></g><g id="Group_504" data-name="Group 504" transform="translate(0.025)"><g id="Group_503" data-name="Group 503"><g id="Group_502" data-name="Group 502"><path id="Path_116" data-name="Path 116" d="M567.614,255.188a2.292,2.292,0,0,0,.048-.4c.021-.287.05-.672.087-1.163.018-.258.037-.543.059-.856q.081-.468.178-1.019t.206-1.189c.093-.419.236-.856.363-1.324a22.877,22.877,0,0,1,1.091-3.033,24.252,24.252,0,0,1,8.435-9.905,25.644,25.644,0,0,1,10.419-4.159,23.176,23.176,0,0,1,3.081-.324c.524-.017,1.053-.065,1.585-.058l1.61.077.814.04.812.116,1.642.233,1.634.388.825.2.808.275a25.054,25.054,0,0,1,11.7,7.9,21.965,21.965,0,0,1,.042,28.267,25.054,25.054,0,0,1-11.678,7.935l-.807.278-.825.2-1.633.392-1.641.238-.812.118-.814.042-1.61.082c-.533.008-1.061-.038-1.586-.054a23.373,23.373,0,0,1-3.081-.315,25.66,25.66,0,0,1-10.431-4.131,24.432,24.432,0,0,1-6.574-6.549,24.125,24.125,0,0,1-1.888-3.332,22.7,22.7,0,0,1-1.1-3.03c-.128-.467-.274-.9-.367-1.323q-.113-.633-.209-1.188c-.066-.366-.126-.706-.182-1.019q-.033-.468-.06-.855c-.039-.491-.069-.875-.091-1.162a2.367,2.367,0,0,0-.049-.4,2.26,2.26,0,0,0,0,.4l.039,1.169q.017.39.036.862.072.473.158,1.029t.187,1.2c.086.425.225.866.346,1.34a22.49,22.49,0,0,0,1.068,3.077,24.16,24.16,0,0,0,1.873,3.392,24.579,24.579,0,0,0,6.608,6.692,25.947,25.947,0,0,0,10.568,4.252,23.554,23.554,0,0,0,3.13.334c.533.018,1.07.067,1.612.06l1.636-.076.828-.04.826-.117,1.671-.237,1.664-.394.839-.2.823-.28a25.486,25.486,0,0,0,11.924-8.068,22.44,22.44,0,0,0-.043-28.914,25.485,25.485,0,0,0-11.944-8.033l-.824-.277-.84-.2-1.665-.39-1.67-.232-.827-.114-.827-.038-1.637-.071c-.542-.006-1.079.044-1.612.064a23.712,23.712,0,0,0-3.129.343A25.928,25.928,0,0,0,577.873,236a24.584,24.584,0,0,0-6.59,6.71,24.113,24.113,0,0,0-1.864,3.4,22.578,22.578,0,0,0-1.059,3.079c-.121.475-.258.917-.343,1.342q-.1.641-.184,1.2c-.056.37-.107.714-.155,1.029q-.018.473-.034.863c-.015.493-.027.88-.036,1.169A2.206,2.206,0,0,0,567.614,255.188Z" transform="translate(-567.605 -231.311)" fill="#263238"></path></g></g></g></g><g id="Group_508" data-name="Group 508" transform="translate(107.284 76.301)"><g id="Group_507" data-name="Group 507" transform="translate(0 0)"><g id="Group_506" data-name="Group 506"><path id="Path_117" data-name="Path 117" d="M612.745,264.876" transform="translate(-612.745 -264.876)" fill="none" stroke="#4e585d" stroke-miterlimit="10" stroke-width="0.05"></path></g></g></g></g></g><g id="Group_980" data-name="Group 980" transform="translate(35.429 -52)"><g id="Group_530" data-name="Group 530" transform="translate(114.029 114.28)"><g id="Group_529" data-name="Group 529"><path id="Path_124" data-name="Path 124" d="M434.831,194.39c8.177-.4,12.2,5.762,16.771,7.005s9.564,1.452,13.953-.329c5.7-2.313,9.594-7.564,14.584-11.156,10.014-7.206,24.842-6.779,34.424.991.227,5.449-4.442,9.754-8.952,12.82s-17.031,7.463-18.628,12.677c-1.2,3.9,7.219,7.182,5.1,10.676-2.032,3.358-9.129,3.135-13,2.469-24.421-4.205-15.857,3.266-23.416,2.573,0,0-15.83-4.03-28.24-6.06" transform="translate(-427.434 -184.777)" fill="#455a64"></path></g></g><g id="Group_589" data-name="Group 589" transform="translate(0 124.511)"><g id="Group_532" data-name="Group 532" transform="translate(24.231 117.398)"><g id="Group_531" data-name="Group 531" transform="translate(0 0)"><path id="Path_125" data-name="Path 125" d="M596.437,338.172l7.932-18.435-16.929-7.332-5.889,23.126,14.175,2.642" transform="translate(-581.551 -312.406)" fill="#ffbe9d"></path></g></g><g id="Group_577" data-name="Group 577" transform="translate(0 137.524)"><g id="Group_566" data-name="Group 566"><g id="Group_536" data-name="Group 536"><g id="Group_535" data-name="Group 535"><g id="Group_534" data-name="Group 534"><g id="Group_533" data-name="Group 533"><path id="Path_126" data-name="Path 126" d="M613.125,332.532l-4.957,16.145s-18.074.384-19.281,3.278l30.958,10.735,8.755-24.839Z" transform="translate(-588.887 -332.532)" fill="#434eff"></path></g></g></g></g><g id="Group_541" data-name="Group 541" transform="translate(27.376 17.915)" opacity="0.6"><g id="Group_540" data-name="Group 540" transform="translate(0 0)"><g id="Group_539" data-name="Group 539"><g id="Group_538" data-name="Group 538"><g id="Group_537" data-name="Group 537"><path id="Path_127" data-name="Path 127" d="M600.671,350.655a1.336,1.336,0,0,1,.374,1.745,1.285,1.285,0,0,1-1.727.386,1.41,1.41,0,0,1-.386-1.851,1.335,1.335,0,0,1,1.841-.2" transform="translate(-598.728 -350.447)" fill="#fff"></path></g></g></g></g></g><g id="Group_545" data-name="Group 545" transform="translate(0 18.277)" opacity="0.6"><g id="Group_544" data-name="Group 544" transform="translate(0 0)"><g id="Group_543" data-name="Group 543"><g id="Group_542" data-name="Group 542"><path id="Path_128" data-name="Path 128" d="M627.815,362.69l.785-2.538-29.976-9.343s-1.586.122-1.767,1.146Z" transform="translate(-596.857 -350.809)" fill="#fff"></path></g></g></g></g><g id="Group_550" data-name="Group 550" transform="translate(18.832 15.761)"><g id="Group_549" data-name="Group 549" transform="translate(0 0)"><g id="Group_548" data-name="Group 548"><g id="Group_547" data-name="Group 547"><g id="Group_546" data-name="Group 546"><path id="Path_129" data-name="Path 129" d="M607.494,348.345c-.047.153.685.484,1.26,1.228.595.729.751,1.517.911,1.505.15.019.238-.963-.475-1.852S607.51,348.2,607.494,348.345Z" transform="translate(-607.491 -348.293)" fill="#263238"></path></g></g></g></g></g><g id="Group_555" data-name="Group 555" transform="translate(15.112 16.001)"><g id="Group_554" data-name="Group 554"><g id="Group_553" data-name="Group 553"><g id="Group_552" data-name="Group 552"><g id="Group_551" data-name="Group 551"><path id="Path_130" data-name="Path 130" d="M612.035,348.562c-.085.135.481.619.772,1.436.316.809.206,1.545.359,1.591.134.073.545-.776.163-1.785S612.089,348.419,612.035,348.562Z" transform="translate(-612.026 -348.533)" fill="#263238"></path></g></g></g></g></g><g id="Group_560" data-name="Group 560" transform="translate(11.595 16.267)"><g id="Group_559" data-name="Group 559" transform="translate(0 0)"><g id="Group_558" data-name="Group 558"><g id="Group_557" data-name="Group 557"><g id="Group_556" data-name="Group 556"><path id="Path_131" data-name="Path 131" d="M616.494,351.809c.126.08.6-.6.5-1.565s-.694-1.537-.8-1.433c-.129.1.176.7.247,1.489C616.527,351.09,616.349,351.742,616.494,351.809Z" transform="translate(-616.159 -348.799)" fill="#263238"></path></g></g></g></g></g><g id="Group_565" data-name="Group 565" transform="translate(20.371 12.06)"><g id="Group_564" data-name="Group 564" transform="translate(0 0)"><g id="Group_563" data-name="Group 563"><g id="Group_562" data-name="Group 562"><g id="Group_561" data-name="Group 561"><path id="Path_132" data-name="Path 132" d="M605.062,344.791c.016.16.781.192,1.616.546.841.338,1.407.855,1.531.753.125-.079-.33-.864-1.319-1.268S605.029,344.647,605.062,344.791Z" transform="translate(-605.061 -344.592)" fill="#263238"></path></g></g></g></g></g></g><g id="Group_571" data-name="Group 571" transform="translate(21.431 7.745)"><g id="Group_570" data-name="Group 570" transform="translate(0 0)"><g id="Group_569" data-name="Group 569"><g id="Group_568" data-name="Group 568"><g id="Group_567" data-name="Group 567"><path id="Path_133" data-name="Path 133" d="M601.8,341.553a3.081,3.081,0,0,0,1.553.529,7.352,7.352,0,0,0,1.795.064,7.741,7.741,0,0,0,1.054-.163,2.016,2.016,0,0,0,.595-.2.7.7,0,0,0,.348-.78.877.877,0,0,0-.542-.575,2.107,2.107,0,0,0-.61-.121,5.891,5.891,0,0,0-1.078,0,5.782,5.782,0,0,0-1.755.443c-.949.416-1.39.9-1.349.943.052.073.565-.279,1.486-.574a6.554,6.554,0,0,1,1.653-.3,6.111,6.111,0,0,1,.986.034c.358.028.637.122.671.3.011.067.007.09-.094.162a1.67,1.67,0,0,1-.437.147,8.605,8.605,0,0,1-.981.184,9.127,9.127,0,0,1-1.7.055A11.26,11.26,0,0,0,601.8,341.553Z" transform="translate(-601.796 -340.277)" fill="#263238"></path></g></g></g></g></g><g id="Group_576" data-name="Group 576" transform="translate(20.49 3.933)"><g id="Group_575" data-name="Group 575"><g id="Group_574" data-name="Group 574"><g id="Group_573" data-name="Group 573"><g id="Group_572" data-name="Group 572"><path id="Path_134" data-name="Path 134" d="M606.8,341.838c.045.042.533-.4.928-1.356a5.335,5.335,0,0,0,.377-1.771,5.4,5.4,0,0,0-.068-1.078,1.359,1.359,0,0,0-.718-1.126.767.767,0,0,0-.8.208,2.261,2.261,0,0,0-.356.513,3.673,3.673,0,0,0-.363,1.044,3.776,3.776,0,0,0,.107,1.831c.327,1.012.9,1.412.925,1.365a13.467,13.467,0,0,1-.544-1.465,3.757,3.757,0,0,1,.015-1.627,3.37,3.37,0,0,1,.339-.886c.162-.312.378-.534.489-.458.155.051.331.389.366.7a5.42,5.42,0,0,1,.093.973,5.907,5.907,0,0,1-.236,1.652C607.084,341.276,606.727,341.786,606.8,341.838Z" transform="translate(-605.737 -336.465)" fill="#263238"></path></g></g></g></g></g></g><g id="Group_579" data-name="Group 579" transform="translate(23.511)"><g id="Group_578" data-name="Group 578"><path id="Path_135" data-name="Path 135" d="M596.872,195.008s14.667,29.053,4.809,35.861-55.907,41.416-55.907,41.416l-23.488,62.687-21.993-9.012,18.331-73.42L564.9,210.98Z" transform="translate(-500.293 -195.008)" fill="#263238"></path></g></g><g id="Group_582" data-name="Group 582" transform="translate(63.578 65.75)"><g id="Group_581" data-name="Group 581" transform="translate(0 0)"><g id="Group_580" data-name="Group 580"><path id="Path_136" data-name="Path 136" d="M560.848,260.761c-.13.1,1.391,2.116,2.521,4.98,1.156,2.855,1.446,5.368,1.606,5.347a15.753,15.753,0,0,0-4.127-10.327Z" transform="translate(-560.841 -260.758)" fill="#455a64"></path></g></g></g><g id="Group_585" data-name="Group 585" transform="translate(67.209 65.147)"><g id="Group_584" data-name="Group 584"><g id="Group_583" data-name="Group 583"><path id="Path_137" data-name="Path 137" d="M560.074,260.156c-.152.044.505,2.428.73,5.443.246,3.015-.033,5.472.123,5.491a18.615,18.615,0,0,0-.853-10.934Z" transform="translate(-560.051 -260.155)" fill="#455a64"></path></g></g></g><g id="Group_588" data-name="Group 588" transform="translate(43.278 14.545)"><g id="Group_587" data-name="Group 587"><g id="Group_586" data-name="Group 586"><path id="Path_138" data-name="Path 138" d="M503.672,334.06a1.787,1.787,0,0,0,.145-.311c.094-.233.219-.542.379-.935l1.414-3.625c1.216-3.161,2.961-7.758,5.085-13.5s4.633-12.627,7.259-20.406q.984-2.918,1.95-6.011a64.516,64.516,0,0,1,2.084-6.252c1.67-4.165,3.688-8.393,5.88-12.673l-.061.077c2.466-2.094,5.08-4.286,7.754-6.486,2.091-1.713,4.163-3.4,6.253-5l6.2-4.705c4.059-3.09,7.984-6.054,11.806-8.762,3.807-2.728,7.579-5.093,11.02-7.461a65.079,65.079,0,0,0,9.078-7.251,22.284,22.284,0,0,0,3.215-3.942,14.455,14.455,0,0,0,1.757-4.187,17.136,17.136,0,0,0,.091-7.222,25.914,25.914,0,0,0-1.276-4.392c-.179-.491-.35-.852-.452-1.1a2.429,2.429,0,0,0-.174-.366,2.2,2.2,0,0,0,.125.386c.085.254.24.621.4,1.116a28.363,28.363,0,0,1,1.175,4.393,17.107,17.107,0,0,1-.175,7.114,14.239,14.239,0,0,1-1.755,4.084,22.148,22.148,0,0,1-3.194,3.856,65.5,65.5,0,0,1-9.062,7.154c-3.438,2.344-7.229,4.7-11.053,7.426-3.837,2.7-7.774,5.663-11.838,8.748l-6.2,4.7c-2.1,1.6-4.176,3.29-6.271,5.006-2.677,2.2-5.291,4.4-7.758,6.495l-.039.033-.023.044c-2.2,4.3-4.21,8.533-5.883,12.73a64.648,64.648,0,0,0-2.081,6.294q-.949,3.087-1.927,6.006c-2.6,7.78-5.078,14.673-7.148,20.433l-4.937,13.553c-.57,1.571-1.016,2.8-1.328,3.657l-.335.951A1.84,1.84,0,0,0,503.672,334.06Z" transform="translate(-503.671 -209.553)" fill="#455a64"></path></g></g></g></g><g id="Group_591" data-name="Group 591" transform="translate(59.1 133.807)"><g id="Group_590" data-name="Group 590" transform="translate(0 0)"><path id="Path_139" data-name="Path 139" d="M569.5,204.3l-28.352,4.021L526.6,212.016l19.906,7.143Z" transform="translate(-526.604 -204.304)" fill="#263238"></path></g></g><g id="Group_594" data-name="Group 594" transform="translate(136.719 131.75)"><g id="Group_593" data-name="Group 593" transform="translate(0 0)"><g id="Group_592" data-name="Group 592"><path id="Path_140" data-name="Path 140" d="M471.405,202.25c-.025.026.184.266.587.681a20.192,20.192,0,0,0,1.818,1.635,28.78,28.78,0,0,0,14.734,6.154,20.077,20.077,0,0,0,2.441.143,2.97,2.97,0,0,0,.9-.061c0-.089-1.269-.135-3.288-.447a32.753,32.753,0,0,1-14.558-6.081C472.394,203.058,471.466,202.186,471.405,202.25Z" transform="translate(-471.403 -202.247)" fill="#263238"></path></g></g></g><g id="Group_642" data-name="Group 642" transform="translate(26.552 45.616)"><g id="Group_596" data-name="Group 596" transform="translate(0 0)"><g id="Group_595" data-name="Group 595"><path id="Path_141" data-name="Path 141" d="M596.583,160.729l5.465,41.117s-18.183-1.183-31.007,3.074-20.7,4.14-20.7,4.14l2.68-25.583-9.567-20.958-4.211,24.549-19.659,20.241-12.809-2.9,13.275-22.244,9.219-45.317.011-.052a16.918,16.918,0,0,1,5.8-9.622l.367-.305,19.3-10.757,6.477.129a101.679,101.679,0,0,1,16.326,1.674,16.52,16.52,0,0,1,8.829,4.733h0a20.468,20.468,0,0,1,4.5,8.413Z" transform="translate(-506.772 -116.113)" fill="#434eff"></path></g></g><g id="Group_599" data-name="Group 599" transform="translate(28.498 27.422)"><g id="Group_598" data-name="Group 598"><g id="Group_597" data-name="Group 597"><path id="Path_142" data-name="Path 142" d="M559.259,143.535a7.24,7.24,0,0,0,.473,1.321l1.465,3.525c1.258,2.967,3.027,7.052,5.007,11.552,1.98,4.447,3.772,8.468,5.124,11.5l1.59,3.469a10.171,10.171,0,0,0,.626,1.254,5.886,5.886,0,0,0-.439-1.333c-.326-.842-.818-2.05-1.439-3.537-1.244-2.974-3.005-7.063-4.986-11.565s-3.8-8.563-5.146-11.492l-1.617-3.458A7.145,7.145,0,0,0,559.259,143.535Z" transform="translate(-559.255 -143.535)" fill="#263238"></path></g></g></g><g id="Group_605" data-name="Group 605" transform="translate(14.873 4.433)"><g id="Group_601" data-name="Group 601" transform="translate(0.347)"><g id="Group_600" data-name="Group 600"><path id="Path_143" data-name="Path 143" d="M586.332,136.373c-3.761,10.474-10.987,34.41-14.522,43.632a16.765,16.765,0,0,1-5.238,7.136l-39.021,27.587-9.015-11.712,29.23-28.2,15.754-46.688c2.219-6.237,11.433-9.61,17.154-6.281h0C585.082,124.418,588.055,131.573,586.332,136.373Z" transform="translate(-518.536 -120.546)" fill="#434eff"></path></g></g><g id="Group_604" data-name="Group 604" transform="translate(0 9.521)"><g id="Group_603" data-name="Group 603"><g id="Group_602" data-name="Group 602"><path id="Path_144" data-name="Path 144" d="M566.226,130.067s-.115.271-.308.807q-.294.837-.834,2.374l-3.112,9.048L550.944,174.75l.056-.089-29.255,28.168-.167.161.142.184L528.2,211.6l2.533,3.291.154.2.2-.148,29.937-21.567,6.694-4.83,1.614-1.165a13.084,13.084,0,0,0,1.551-1.228,15.07,15.07,0,0,0,2.486-2.966,17.148,17.148,0,0,0,1.63-3.352l1.286-3.318c.824-2.175,1.6-4.266,2.319-6.27,2.879-8.01,4.989-14.547,6.427-19.063.7-2.247,1.241-4,1.617-5.209.172-.582.306-1.033.4-1.359.088-.307.12-.468.12-.468s-.065.151-.169.452c-.108.323-.258.769-.45,1.344-.4,1.2-.972,2.945-1.708,5.179-1.495,4.5-3.658,11.014-6.578,19q-1.092,3-2.348,6.251-.636,1.623-1.3,3.309a16.77,16.77,0,0,1-1.606,3.273,14.656,14.656,0,0,1-2.425,2.873,12.924,12.924,0,0,1-1.523,1.2l-1.617,1.159-6.706,4.811-29.958,21.524.358.052-2.533-3.29c-2.22-2.885-4.413-5.733-6.483-8.421l-.025.344,29.2-28.221.039-.038.017-.051,10.851-32.513c1.287-3.9,2.3-6.971,3-9.087q.5-1.55.772-2.4C566.155,130.353,566.226,130.067,566.226,130.067Z" transform="translate(-521.578 -130.067)" fill="#263238"></path></g></g></g></g><g id="Group_608" data-name="Group 608" transform="translate(63.243 4.591)"><g id="Group_607" data-name="Group 607" transform="translate(0 0)"><g id="Group_606" data-name="Group 606"><path id="Path_145" data-name="Path 145" d="M523.621,124.369c.063.064.715-.623,1.986-1.41a11.283,11.283,0,0,1,11.085-.532c1.34.661,2.055,1.282,2.111,1.212a5.733,5.733,0,0,0-1.939-1.537,10.724,10.724,0,0,0-11.459.55A5.719,5.719,0,0,0,523.621,124.369Z" transform="translate(-523.619 -120.704)" fill="#263238"></path></g></g></g><g id="Group_611" data-name="Group 611" transform="translate(12.426 66.343)"><g id="Group_610" data-name="Group 610" transform="translate(0 0)"><g id="Group_609" data-name="Group 609"><path id="Path_146" data-name="Path 146" d="M581.83,182.738c.016.157,1.846-.034,4,.5,2.162.51,3.7,1.518,3.787,1.384a8.723,8.723,0,0,0-7.788-1.886Z" transform="translate(-581.829 -182.456)" fill="#263238"></path></g></g></g><g id="Group_614" data-name="Group 614" transform="translate(77.919 33.616)"><g id="Group_613" data-name="Group 613" transform="translate(0 0)"><g id="Group_612" data-name="Group 612"><path id="Path_147" data-name="Path 147" d="M514.609,152.129a1.442,1.442,0,0,0,.389.1,10.525,10.525,0,0,0,1.081.165,10.647,10.647,0,0,0,3.6-.229,10.409,10.409,0,0,0,3.284-1.5,9.994,9.994,0,0,0,.872-.662c.2-.168.3-.265.291-.277a14.681,14.681,0,0,1-4.5,2.234A15.274,15.274,0,0,1,514.609,152.129Z" transform="translate(-514.609 -149.729)" fill="#fafafa"></path></g></g></g><g id="Group_617" data-name="Group 617" transform="translate(74.877 42.305)"><g id="Group_616" data-name="Group 616" transform="translate(0 0)"><g id="Group_615" data-name="Group 615"><path id="Path_148" data-name="Path 148" d="M513,161.053a17.607,17.607,0,0,1,1.848-1.093,14.1,14.1,0,0,1,4.985-1.274,31.121,31.121,0,0,1,5.185.118l1.572.145a3.047,3.047,0,0,0,.58.029,3.1,3.1,0,0,0-.57-.109c-.369-.057-.9-.133-1.567-.211a27,27,0,0,0-5.217-.18,13.312,13.312,0,0,0-5.034,1.35,8.96,8.96,0,0,0-1.344.843A2.552,2.552,0,0,0,513,161.053Z" transform="translate(-513.001 -158.418)" fill="#fafafa"></path></g></g></g><g id="Group_620" data-name="Group 620" transform="translate(49.272 29.788)" opacity="0.4"><g id="Group_619" data-name="Group 619"><g id="Group_618" data-name="Group 618"><path id="Path_149" data-name="Path 149" d="M552.776,145.9s-1.049,15.643-2.169,22.867-3.454,14.593-8.628,19.758c-5.214,5.206-12.625,7.511-19.848,8.966q3.5-2.636,6.864-5.44c2.888-2.406,7.135-4.753,9.46-7.707,4.482-5.694,5.451-12.881,7.758-19.75,2.127-6.331,4.436-12.362,6.563-18.694" transform="translate(-522.131 -145.901)"></path></g></g></g><g id="Group_623" data-name="Group 623" transform="translate(52.754 35.744)"><g id="Group_622" data-name="Group 622" transform="translate(0 0)"><g id="Group_621" data-name="Group 621"><path id="Path_150" data-name="Path 150" d="M527.177,152.041a3.263,3.263,0,0,0,.828.413,6.662,6.662,0,0,0,2.495.371c2.15.029,5-1.012,8.239-.7a17.646,17.646,0,0,1,7.791,2.5,18.737,18.737,0,0,1,2.051,1.44l.521.442a1.084,1.084,0,0,0,.192.144,12.825,12.825,0,0,0-2.687-2.151,17.221,17.221,0,0,0-7.853-2.58c-3.287-.308-6.149.761-8.258.765a6.963,6.963,0,0,1-2.464-.3C527.469,152.2,527.191,152.012,527.177,152.041Z" transform="translate(-527.177 -151.857)" fill="#fafafa"></path></g></g></g><g id="Group_626" data-name="Group 626" transform="translate(55.66 28.335)"><g id="Group_625" data-name="Group 625" transform="translate(0 0)"><g id="Group_624" data-name="Group 624"><path id="Path_151" data-name="Path 151" d="M524.545,144.449a.969.969,0,0,0,.193.128l.575.332c.5.289,1.239.672,2.171,1.112a39.468,39.468,0,0,0,15.572,3.7c1.03.027,1.864.018,2.44-.016l.662-.038a.961.961,0,0,0,.23-.028.99.99,0,0,0-.232-.014h-.662c-.575.009-1.407-.005-2.433-.05a42.444,42.444,0,0,1-15.515-3.686c-.937-.421-1.686-.783-2.195-1.05l-.592-.3A.971.971,0,0,0,524.545,144.449Z" transform="translate(-524.545 -144.448)" fill="#fafafa"></path></g></g></g><g id="Group_629" data-name="Group 629" transform="translate(33.508 22.749)"><g id="Group_628" data-name="Group 628"><g id="Group_627" data-name="Group 627"><path id="Path_152" data-name="Path 152" d="M545.985,152.649a1.388,1.388,0,0,0,.271-.063,4.735,4.735,0,0,0,.755-.26,8.605,8.605,0,0,0,2.445-1.613c1.9-1.62,3.651-4.66,6.6-7.007a22.074,22.074,0,0,1,8.549-4.219,23.526,23.526,0,0,1,2.87-.51l.791-.073a1.477,1.477,0,0,0,.276-.039,16.444,16.444,0,0,0-3.971.479,21.54,21.54,0,0,0-8.646,4.2,23.943,23.943,0,0,0-3.705,3.82,31.024,31.024,0,0,1-2.862,3.24,8.977,8.977,0,0,1-2.378,1.648C546.356,152.545,545.975,152.618,545.985,152.649Z" transform="translate(-545.985 -138.862)" fill="#fafafa"></path></g></g></g><g id="Group_632" data-name="Group 632" transform="translate(34.683 32.323)"><g id="Group_631" data-name="Group 631" transform="translate(0 0)"><g id="Group_630" data-name="Group 630"><path id="Path_153" data-name="Path 153" d="M548.568,157.419a6.572,6.572,0,0,0,.834-.24,7.707,7.707,0,0,0,2.024-1.227,21.214,21.214,0,0,0,2.45-2.51,23.4,23.4,0,0,1,2.979-3.043,8.055,8.055,0,0,1,3.844-1.652,14.513,14.513,0,0,1,3.469-.065c.989.084,1.786.2,2.337.282l.636.088a.966.966,0,0,0,.224.018.834.834,0,0,0-.217-.059l-.629-.127c-.548-.1-1.343-.245-2.337-.349a14.165,14.165,0,0,0-3.512.022,8.148,8.148,0,0,0-3.943,1.678,22.5,22.5,0,0,0-3,3.081,22.665,22.665,0,0,1-2.4,2.524,8.222,8.222,0,0,1-1.961,1.264C548.858,157.308,548.563,157.4,548.568,157.419Z" transform="translate(-548.568 -148.436)" fill="#fafafa"></path></g></g></g><g id="Group_635" data-name="Group 635" transform="translate(19.357 37.71)"><g id="Group_634" data-name="Group 634" transform="translate(0 0)"><g id="Group_633" data-name="Group 633"><path id="Path_154" data-name="Path 154" d="M567.956,154.2a6.662,6.662,0,0,1,2.222-.222,9.419,9.419,0,0,1,2.366.534c.865.3,1.781.74,2.754,1.179a15.072,15.072,0,0,0,2.843,1.022,7,7,0,0,0,2.469.126,4.564,4.564,0,0,0,1.584-.517,2.368,2.368,0,0,0,.5-.355,5.316,5.316,0,0,1-2.1.726,7.12,7.12,0,0,1-2.407-.167,15.686,15.686,0,0,1-2.8-1.025c-.97-.437-1.893-.873-2.777-1.171a9.028,9.028,0,0,0-2.419-.5,5.431,5.431,0,0,0-1.658.155A2.718,2.718,0,0,0,567.956,154.2Z" transform="translate(-567.956 -153.823)" fill="#fafafa"></path></g></g></g><g id="Group_638" data-name="Group 638" transform="translate(17.781 42.395)"><g id="Group_637" data-name="Group 637" transform="translate(0 0)"><g id="Group_636" data-name="Group 636"><path id="Path_155" data-name="Path 155" d="M565.533,159.638a4.943,4.943,0,0,1,2.756-.967,7.591,7.591,0,0,1,3.138.566,17.784,17.784,0,0,1,3.412,1.986,24.863,24.863,0,0,0,3.389,2.109,8.586,8.586,0,0,0,3.152.845,5.206,5.206,0,0,0,2.175-.322,3.018,3.018,0,0,0,.712-.38,5.459,5.459,0,0,1-2.878.555,8.66,8.66,0,0,1-3.078-.872,25.924,25.924,0,0,1-3.353-2.107,17.428,17.428,0,0,0-3.461-1.993,7.579,7.579,0,0,0-3.217-.534,4.762,4.762,0,0,0-2.108.62A2.851,2.851,0,0,0,565.533,159.638Z" transform="translate(-565.533 -158.508)" fill="#fafafa"></path></g></g></g><g id="Group_641" data-name="Group 641" transform="translate(31.677 34.138)" opacity="0.4"><g id="Group_640" data-name="Group 640" transform="translate(0 0)"><g id="Group_639" data-name="Group 639"><path id="Path_156" data-name="Path 156" d="M568.076,175.741c-2.043-8.188-2.442-17.057-2.734-25.49.711,2.95,2.521,5.5,3.641,8.324.536,1.349,1.388,3.787,1.388,3.787l-2.262,13.182" transform="translate(-565.342 -150.251)"></path></g></g></g></g><g id="Group_807" data-name="Group 807" transform="translate(43.492)"><g id="Group_702" data-name="Group 702"><g id="Group_644" data-name="Group 644" transform="translate(30.671 8.903)"><g id="Group_643" data-name="Group 643"><path id="Path_157" data-name="Path 157" d="M547.587,79.4a4.149,4.149,0,0,0,2.763,3.324c.823.268,1.72.27,2.53.576a1.9,1.9,0,0,1,1.38,1.942c-.136.634-.725,1.046-1.206,1.48s-.918,1.106-.642,1.693c.3.646,1.23.7,1.711,1.225a1.665,1.665,0,0,1-.113,2.072,7.393,7.393,0,0,1-1.768,1.386,2.9,2.9,0,0,0-1.355,1.729" transform="translate(-547.587 -79.4)" fill="#263238"></path></g></g><g id="Group_701" data-name="Group 701"><g id="Group_646" data-name="Group 646"><g id="Group_645" data-name="Group 645"><path id="Path_158" data-name="Path 158" d="M551.817,92.39c-2.2-4.648-.6-10.445,2.831-14.279s8.345-6,13.287-7.43c.71-.2,1.591-.352,2.087.2a1.394,1.394,0,0,1-.125,1.778,4.057,4.057,0,0,1-1.657.989,15.439,15.439,0,0,1,6.437-1.756,4.081,4.081,0,0,1,2.265.487,1.857,1.857,0,0,1,.89,2,1.221,1.221,0,0,1-1.862.634,9.467,9.467,0,0,1,6.1,1.431c1.285.825,2.448,2.238,2.139,3.733a21.908,21.908,0,0,1-1.123,2.433c-.525,1.551.246,3.2.838,4.73a14.677,14.677,0,0,1,1.048,7.475A8.668,8.668,0,0,1,581,101.027" transform="translate(-550.808 -70.497)" fill="#263238"></path></g></g><g id="Group_667" data-name="Group 667" transform="translate(0.818 6.328)"><g id="Group_666" data-name="Group 666"><g id="Group_665" data-name="Group 665"><g id="Group_655" data-name="Group 655"><g id="Group_654" data-name="Group 654"><g id="Group_653" data-name="Group 653"><g id="Group_652" data-name="Group 652"><g id="Group_651" data-name="Group 651"><g id="Group_650" data-name="Group 650"><g id="Group_649" data-name="Group 649"><g id="Group_648" data-name="Group 648"><g id="Group_647" data-name="Group 647"><path id="Path_159" data-name="Path 159" d="M576.695,131.6a10.235,10.235,0,0,0,7.174-12.785l-9.178-31.088a14.686,14.686,0,0,0-18.369-10.289l-.72.261a14.781,14.781,0,0,0-9.239,17.79c1.888,6.916,4.063,14.535,5.412,18.124,2.79,7.43,10.674,5.891,10.674,5.891l1.937,5.57a10.234,10.234,0,0,0,12.309,6.526Z" transform="translate(-545.838 -76.824)" fill="#ffbe9d"></path></g></g></g></g></g></g></g></g></g><g id="Group_664" data-name="Group 664" transform="translate(16.558 36.292)"><g id="Group_663" data-name="Group 663" transform="translate(0 0)"><g id="Group_662" data-name="Group 662"><g id="Group_661" data-name="Group 661"><g id="Group_660" data-name="Group 660"><g id="Group_659" data-name="Group 659"><g id="Group_658" data-name="Group 658"><g id="Group_657" data-name="Group 657"><g id="Group_656" data-name="Group 656"><path id="Path_160" data-name="Path 160" d="M559,119.4a18.455,18.455,0,0,0,8.729-6.283s-.357,6.2-8.047,8.222Z" transform="translate(-559.003 -113.116)" fill="#eb996e"></path></g></g></g></g></g></g></g></g></g></g></g></g><g id="Group_672" data-name="Group 672" transform="translate(18.609 5.451)"><g id="Group_669" data-name="Group 669" transform="translate(0.181)"><g id="Group_668" data-name="Group 668"><path id="Path_161" data-name="Path 161" d="M552.762,81.955c.61-1.343,1.381-4.267,2.42-5.314s2.728-.7,4.149-.3a4.8,4.8,0,0,1,3.187,2.983c1.959,5.378,2.2,10.451,3.666,15.74a1.933,1.933,0,0,1,.087,1.071c-.276.9-1.261,1.216-2.191,1.352-2.291.334-3.462-1.336-4.543-3.349a23.765,23.765,0,0,1-.794-3.718,10.118,10.118,0,0,0-5.625-8.3Z" transform="translate(-552.762 -75.948)" fill="#263238"></path></g></g><g id="Group_671" data-name="Group 671" transform="translate(0 6.524)"><g id="Group_670" data-name="Group 670"><path id="Path_162" data-name="Path 162" d="M566.5,82.472" transform="translate(-566.499 -82.472)" fill="#263238"></path></g></g></g><g id="Group_692" data-name="Group 692" transform="translate(28.375 20.401)"><g id="Group_681" data-name="Group 681"><g id="Group_680" data-name="Group 680"><g id="Group_679" data-name="Group 679"><g id="Group_678" data-name="Group 678"><g id="Group_677" data-name="Group 677"><g id="Group_676" data-name="Group 676"><g id="Group_675" data-name="Group 675"><g id="Group_674" data-name="Group 674"><g id="Group_673" data-name="Group 673"><path id="Path_163" data-name="Path 163" d="M550.154,92.012c.107-.1,4.579-3.371,6.261,1.789s-3.846,5.785-3.9,5.64S550.154,92.012,550.154,92.012Z" transform="translate(-550.154 -90.898)" fill="#ffbe9d"></path></g></g></g></g></g></g></g></g></g><g id="Group_691" data-name="Group 691" transform="translate(2.465 1.63)"><g id="Group_690" data-name="Group 690"><g id="Group_689" data-name="Group 689"><g id="Group_688" data-name="Group 688"><g id="Group_687" data-name="Group 687"><g id="Group_686" data-name="Group 686"><g id="Group_685" data-name="Group 685"><g id="Group_684" data-name="Group 684"><g id="Group_683" data-name="Group 683"><g id="Group_682" data-name="Group 682"><path id="Path_164" data-name="Path 164" d="M552.429,96.972c.017-.024.11.034.285.054a.944.944,0,0,0,.676-.205,2.339,2.339,0,0,0,.379-2.331,3.115,3.115,0,0,0-.671-1.2,1.09,1.09,0,0,0-.9-.47.481.481,0,0,0-.45.419c-.022.167.044.259.02.277s-.139-.05-.167-.277a.6.6,0,0,1,.1-.39.716.716,0,0,1,.455-.293,1.329,1.329,0,0,1,1.2.494,3.223,3.223,0,0,1,.78,1.337,2.454,2.454,0,0,1-.585,2.656,1.012,1.012,0,0,1-.867.131C552.479,97.094,552.414,96.988,552.429,96.972Z" transform="translate(-551.597 -92.528)" fill="#eb996e"></path></g></g></g></g></g></g></g></g></g></g></g><g id="Group_694" data-name="Group 694" transform="translate(1.235 3.289)"><g id="Group_693" data-name="Group 693"><path id="Path_165" data-name="Path 165" d="M581.907,83.114c-2.54-1.739-5.159-.881-6.908.137s-3.234,2.457-5.031,3.386-4.144,1.25-5.747.014a5.5,5.5,0,0,1-1.821-3.97,10.9,10.9,0,0,1,2.615-7.991c.495-.567,1.25-1.124,1.937-.817.85.381.718,1.614.444,2.5,0,0,8.679-3.206,13.976-1.357S581.907,83.114,581.907,83.114Z" transform="translate(-562.363 -73.786)" fill="#263238"></path></g></g><g id="Group_697" data-name="Group 697" transform="translate(2.631 0.087)"><g id="Group_696" data-name="Group 696"><g id="Group_695" data-name="Group 695"><path id="Path_166" data-name="Path 166" d="M582.468,70.584c-.047-.008-.1.371-.367.992a7.9,7.9,0,0,1-1.653,2.31,12.813,12.813,0,0,1-3.461,2.419,10.085,10.085,0,0,1-2.357.793c-.852.188-1.76.321-2.681.576a6.228,6.228,0,0,0-2.5,1.266,5.529,5.529,0,0,0-1.512,2.141,4.826,4.826,0,0,0-.315,2.354,4.522,4.522,0,0,0,3.1,3.681,3.3,3.3,0,0,0,.793.129c.183,0,.278-.007.279-.023,0-.043-.384-.046-1.017-.273a4.441,4.441,0,0,1-2.139-1.762,4.169,4.169,0,0,1-.641-1.795,4.51,4.51,0,0,1,.329-2.156,5.189,5.189,0,0,1,1.415-1.96,5.878,5.878,0,0,1,2.336-1.166c.883-.245,1.786-.381,2.655-.579a10.257,10.257,0,0,0,2.443-.85,12.49,12.49,0,0,0,3.509-2.572,7.316,7.316,0,0,0,1.587-2.468,4,4,0,0,0,.189-.778C582.478,70.682,582.483,70.587,582.468,70.584Z" transform="translate(-567.585 -70.584)" fill="#455a64"></path></g></g></g><g id="Group_700" data-name="Group 700" transform="translate(4.543 1.638)"><g id="Group_699" data-name="Group 699"><g id="Group_698" data-name="Group 698"><path id="Path_167" data-name="Path 167" d="M580.558,72.135c-.039-.009-.126.381-.42,1.026a7.65,7.65,0,0,1-1.781,2.373,10.819,10.819,0,0,1-3.829,2.166,36.74,36.74,0,0,1-5.338,1.24,20.6,20.6,0,0,0-5.35,1.537,3.669,3.669,0,0,0-1.747,1.777,3.449,3.449,0,0,0-.12,2.17,4.282,4.282,0,0,0,1.848,2.443,4.526,4.526,0,0,0,.738.394c.176.073.274.1.28.084.018-.036-.351-.2-.916-.623a4.262,4.262,0,0,1-1.639-2.374,3.164,3.164,0,0,1,.154-1.947,3.324,3.324,0,0,1,1.6-1.556,21.42,21.42,0,0,1,5.239-1.46,34.1,34.1,0,0,0,5.393-1.291,10.748,10.748,0,0,0,3.909-2.326A7.192,7.192,0,0,0,580.3,73.23a5,5,0,0,0,.232-.8C580.564,72.238,580.573,72.138,580.558,72.135Z" transform="translate(-561.853 -72.135)" fill="#455a64"></path></g></g></g></g></g><g id="Group_806" data-name="Group 806" transform="translate(3.212 17.018)"><g id="Group_805" data-name="Group 805"><g id="Group_804" data-name="Group 804"><g id="Group_803" data-name="Group 803"><g id="Group_802" data-name="Group 802"><g id="Group_801" data-name="Group 801"><g id="Group_800" data-name="Group 800"><g id="Group_777" data-name="Group 777" transform="translate(0.841 4.668)"><g id="Group_776" data-name="Group 776" transform="translate(0 0)"><g id="Group_775" data-name="Group 775"><g id="Group_726" data-name="Group 726" transform="translate(0 4.038)"><g id="Group_713" data-name="Group 713" transform="translate(2.211 1.342)"><g id="Group_712" data-name="Group 712"><g id="Group_711" data-name="Group 711"><g id="Group_710" data-name="Group 710"><g id="Group_709" data-name="Group 709"><g id="Group_708" data-name="Group 708"><g id="Group_707" data-name="Group 707"><g id="Group_706" data-name="Group 706"><g id="Group_705" data-name="Group 705"><g id="Group_704" data-name="Group 704"><g id="Group_703" data-name="Group 703"><path id="Path_168" data-name="Path 168" d="M576.432,99.079a1.231,1.231,0,0,0,1.529.784,1.177,1.177,0,0,0,.834-1.465,1.231,1.231,0,0,0-1.527-.784A1.178,1.178,0,0,0,576.432,99.079Z" transform="translate(-576.382 -97.563)" fill="#263238"></path></g></g></g></g></g></g></g></g></g></g></g><g id="Group_725" data-name="Group 725" transform="translate(0 0)"><g id="Group_724" data-name="Group 724"><g id="Group_723" data-name="Group 723"><g id="Group_722" data-name="Group 722"><g id="Group_721" data-name="Group 721"><g id="Group_720" data-name="Group 720"><g id="Group_719" data-name="Group 719"><g id="Group_718" data-name="Group 718"><g id="Group_717" data-name="Group 717"><g id="Group_716" data-name="Group 716"><g id="Group_715" data-name="Group 715"><g id="Group_714" data-name="Group 714"><path id="Path_169" data-name="Path 169" d="M576.479,98.423c.2.1.851-.856,2.1-1.287,1.245-.449,2.387-.125,2.469-.325.043-.091-.2-.314-.7-.466a3.37,3.37,0,0,0-2.041.073,3.234,3.234,0,0,0-1.608,1.214C576.419,98.06,576.384,98.38,576.479,98.423Z" transform="translate(-576.431 -96.221)" fill="#263238"></path></g></g></g></g></g></g></g></g></g></g></g></g></g><g id="Group_750" data-name="Group 750" transform="translate(12.379)"><g id="Group_737" data-name="Group 737" transform="translate(2.197 1.821)"><g id="Group_736" data-name="Group 736"><g id="Group_735" data-name="Group 735"><g id="Group_734" data-name="Group 734"><g id="Group_733" data-name="Group 733"><g id="Group_732" data-name="Group 732"><g id="Group_731" data-name="Group 731"><g id="Group_730" data-name="Group 730"><g id="Group_729" data-name="Group 729"><g id="Group_728" data-name="Group 728"><g id="Group_727" data-name="Group 727"><path id="Path_170" data-name="Path 170" d="M564.067,95.519a1.23,1.23,0,0,0,1.528.784,1.177,1.177,0,0,0,.834-1.465,1.23,1.23,0,0,0-1.527-.784A1.177,1.177,0,0,0,564.067,95.519Z" transform="translate(-564.017 -94.003)" fill="#263238"></path></g></g></g></g></g></g></g></g></g></g></g><g id="Group_749" data-name="Group 749"><g id="Group_748" data-name="Group 748"><g id="Group_747" data-name="Group 747"><g id="Group_746" data-name="Group 746"><g id="Group_745" data-name="Group 745"><g id="Group_744" data-name="Group 744"><g id="Group_743" data-name="Group 743"><g id="Group_742" data-name="Group 742"><g id="Group_741" data-name="Group 741"><g id="Group_740" data-name="Group 740"><g id="Group_739" data-name="Group 739"><g id="Group_738" data-name="Group 738"><path id="Path_171" data-name="Path 171" d="M564.1,94.385c.2.1.853-.857,2.1-1.288,1.244-.448,2.386-.124,2.469-.324.042-.091-.2-.314-.7-.466a3.379,3.379,0,0,0-2.042.072,3.249,3.249,0,0,0-1.608,1.214C564.041,94.022,564,94.341,564.1,94.385Z" transform="translate(-564.052 -92.183)" fill="#263238"></path></g></g></g></g></g></g></g></g></g></g></g></g></g><g id="Group_762" data-name="Group 762" transform="translate(7.519 2.435)"><g id="Group_761" data-name="Group 761"><g id="Group_760" data-name="Group 760"><g id="Group_759" data-name="Group 759"><g id="Group_758" data-name="Group 758"><g id="Group_757" data-name="Group 757"><g id="Group_756" data-name="Group 756"><g id="Group_755" data-name="Group 755"><g id="Group_754" data-name="Group 754"><g id="Group_753" data-name="Group 753"><g id="Group_752" data-name="Group 752"><g id="Group_751" data-name="Group 751"><path id="Path_172" data-name="Path 172" d="M573.536,105.24a8.675,8.675,0,0,0-2.159.339c-.331.078-.656.119-.785-.08a1.714,1.714,0,0,1-.116-1.021q.048-1.315.1-2.761a44.166,44.166,0,0,0-.089-7.1,44.358,44.358,0,0,0-.483,7.09q-.028,1.446-.055,2.761a1.956,1.956,0,0,0,.27,1.312.851.851,0,0,0,.687.284,2.235,2.235,0,0,0,.569-.113A8.665,8.665,0,0,0,573.536,105.24Z" transform="translate(-569.947 -94.618)" fill="#263238"></path></g></g></g></g></g></g></g></g></g></g></g></g><g id="Group_774" data-name="Group 774" transform="translate(12.254 12.64)"><g id="Group_773" data-name="Group 773"><g id="Group_772" data-name="Group 772"><g id="Group_771" data-name="Group 771"><g id="Group_770" data-name="Group 770"><g id="Group_769" data-name="Group 769"><g id="Group_768" data-name="Group 768"><g id="Group_767" data-name="Group 767"><g id="Group_766" data-name="Group 766"><g id="Group_765" data-name="Group 765"><g id="Group_764" data-name="Group 764"><g id="Group_763" data-name="Group 763"><path id="Path_173" data-name="Path 173" d="M568.221,104.826c-.208.059.262,1.418-.566,2.785s-2.325,1.721-2.269,1.914c.01.092.414.152,1.03-.044a3.572,3.572,0,0,0,1.921-1.521,3.117,3.117,0,0,0,.388-2.305C568.579,105.07,568.311,104.786,568.221,104.826Z" transform="translate(-565.384 -104.822)" fill="#263238"></path></g></g></g></g></g></g></g></g></g></g></g></g></g></g></g><g id="Group_788" data-name="Group 788" transform="translate(11.209)"><g id="Group_787" data-name="Group 787"><g id="Group_786" data-name="Group 786"><g id="Group_785" data-name="Group 785"><g id="Group_784" data-name="Group 784"><g id="Group_783" data-name="Group 783"><g id="Group_782" data-name="Group 782"><g id="Group_781" data-name="Group 781"><g id="Group_780" data-name="Group 780"><g id="Group_779" data-name="Group 779"><g id="Group_778" data-name="Group 778"><path id="Path_174" data-name="Path 174" d="M564.776,89.594c.241.3,1.435-.3,2.964-.631,1.522-.363,2.855-.345,2.944-.717.036-.176-.282-.425-.875-.588a5.259,5.259,0,0,0-4.5,1.028C564.845,89.09,564.667,89.451,564.776,89.594Z" transform="translate(-564.745 -87.515)" fill="#263238"></path></g></g></g></g></g></g></g></g></g></g></g><g id="Group_799" data-name="Group 799" transform="translate(0 4.888)"><g id="Group_798" data-name="Group 798" transform="translate(0 0)"><g id="Group_797" data-name="Group 797"><g id="Group_796" data-name="Group 796"><g id="Group_795" data-name="Group 795"><g id="Group_794" data-name="Group 794"><g id="Group_793" data-name="Group 793"><g id="Group_792" data-name="Group 792"><g id="Group_791" data-name="Group 791"><g id="Group_790" data-name="Group 790"><g id="Group_789" data-name="Group 789"><path id="Path_175" data-name="Path 175" d="M577.7,94.643c.319.207,1.078-.387,2.11-.761,1.018-.41,1.98-.474,2.079-.841.038-.175-.2-.412-.676-.548a3.25,3.25,0,0,0-3.375,1.291C577.577,94.2,577.558,94.538,577.7,94.643Z" transform="translate(-577.613 -92.403)" fill="#263238"></path></g></g></g></g></g></g></g></g></g></g></g></g></g></g></g></g></g></g></g><g id="Group_964" data-name="Group 964" transform="translate(67.059 114.491)"><g id="Group_809" data-name="Group 809" transform="translate(0 20.606)"><g id="Group_808" data-name="Group 808" transform="translate(0 0)"><path id="Path_176" data-name="Path 176" d="M556.44,205.594a4.941,4.941,0,0,0-3.2,5.639L560,213.9l1.543-6.506Z" transform="translate(-553.141 -205.594)" fill="#455a64"></path></g></g><g id="Group_963" data-name="Group 963" transform="translate(5.476 0)"><g id="Group_811" data-name="Group 811" transform="translate(2.414 9.707)"><g id="Group_810" data-name="Group 810"><path id="Path_177" data-name="Path 177" d="M553.65,205.572s-13.527-1.4-22.039,1.591-19.072,5.215-23.741,4.168a11.9,11.9,0,0,1-6.37-3.972s13.481-1.617,19.829-3.67c4.274-1.382,12.708-10.945,28.327-8.636Z" transform="translate(-501.5 -194.695)" fill="#455a64"></path></g></g><g id="Group_838" data-name="Group 838" transform="translate(0 22.217)"><g id="Group_813" data-name="Group 813" transform="translate(0.103 0)"><g id="Group_812" data-name="Group 812"><path id="Path_178" data-name="Path 178" d="M545.647,210.473a9.131,9.131,0,0,1,2.18-3.268l-.123.154a20.759,20.759,0,0,1,4.2.613,6.959,6.959,0,0,1,3.554,2.2,1.872,1.872,0,0,1,.5,1.259,2.3,2.3,0,0,1-1.063,1.462,12.668,12.668,0,0,1-4.25,2.525,4.308,4.308,0,0,1-4.541-1.17A4.1,4.1,0,0,1,545.647,210.473Z" transform="translate(-545.393 -207.205)" fill="#455a64"></path></g></g><g id="Group_816" data-name="Group 816" transform="translate(0 0.362)"><g id="Group_815" data-name="Group 815"><g id="Group_814" data-name="Group 814"><path id="Path_179" data-name="Path 179" d="M556.064,210a1.959,1.959,0,0,0-.429-.768,4.461,4.461,0,0,0-2.029-1.265,7.4,7.4,0,0,0-3.537-.3,5.2,5.2,0,0,0-3.6,2.335,3.644,3.644,0,0,0,.181,4.186,3.306,3.306,0,0,0,1.55,1.131,4.227,4.227,0,0,0,1.66.2,8,8,0,0,0,2.326-.581c.264-.1.464-.195.6-.258a1,1,0,0,0,.2-.108.885.885,0,0,0-.217.069l-.61.221a8.571,8.571,0,0,1-2.307.51,3.435,3.435,0,0,1-3.048-1.3,3.485,3.485,0,0,1-.156-3.962,5.04,5.04,0,0,1,3.457-2.254,7.4,7.4,0,0,1,3.459.254,4.539,4.539,0,0,1,2.013,1.179A3.877,3.877,0,0,1,556.064,210Z" transform="translate(-545.891 -207.567)" fill="#263238"></path></g></g></g><g id="Group_819" data-name="Group 819" transform="translate(7.31 1.797)"><g id="Group_818" data-name="Group 818"><g id="Group_817" data-name="Group 817"><path id="Path_180" data-name="Path 180" d="M547,210.224a4.791,4.791,0,0,1,1.753-1.218A2.641,2.641,0,0,0,547,210.224Z" transform="translate(-547 -209.002)" fill="#fafafa"></path></g></g></g><g id="Group_822" data-name="Group 822" transform="translate(5.119 1.85)"><g id="Group_821" data-name="Group 821"><g id="Group_820" data-name="Group 820"><path id="Path_181" data-name="Path 181" d="M549.435,210.323c.024.02.316-.312.733-.659s.792-.58.777-.607a2.652,2.652,0,0,0-.844.527A2.624,2.624,0,0,0,549.435,210.323Z" transform="translate(-549.434 -209.055)" fill="#fafafa"></path></g></g></g><g id="Group_825" data-name="Group 825" transform="translate(4.235 4.434)"><g id="Group_824" data-name="Group 824"><g id="Group_823" data-name="Group 823"><path id="Path_182" data-name="Path 182" d="M549.6,214.955c.018,0,.053-.226.162-.581a4.906,4.906,0,0,1,1.587-2.365c.287-.235.485-.354.476-.37a2.675,2.675,0,0,0-.522.312,4.4,4.4,0,0,0-1.612,2.4A2.681,2.681,0,0,0,549.6,214.955Z" transform="translate(-549.604 -211.639)" fill="#fafafa"></path></g></g></g><g id="Group_828" data-name="Group 828" transform="translate(1.907 2.207)"><g id="Group_827" data-name="Group 827"><g id="Group_826" data-name="Group 826"><path id="Path_183" data-name="Path 183" d="M553.472,213.249c.017,0-.01-.223-.021-.58a6.864,6.864,0,0,1,.1-1.385,7,7,0,0,1,.385-1.336c.134-.331.236-.528.221-.536s-.038.042-.091.128a3.85,3.85,0,0,0-.2.379,5.608,5.608,0,0,0-.491,2.754,3.887,3.887,0,0,0,.055.424A.465.465,0,0,0,553.472,213.249Z" transform="translate(-553.361 -209.412)" fill="#fafafa"></path></g></g></g><g id="Group_831" data-name="Group 831" transform="translate(2.008 1.87)"><g id="Group_830" data-name="Group 830"><g id="Group_829" data-name="Group 829"><path id="Path_184" data-name="Path 184" d="M548.538,209.079A11.938,11.938,0,0,1,554.055,213a3.417,3.417,0,0,0-.562-.847,9.117,9.117,0,0,0-3.969-2.82A3.39,3.39,0,0,0,548.538,209.079Z" transform="translate(-548.538 -209.075)" fill="#263238"></path></g></g></g><g id="Group_834" data-name="Group 834" transform="translate(5.353 0.788)"><g id="Group_833" data-name="Group 833"><g id="Group_832" data-name="Group 832"><path id="Path_185" data-name="Path 185" d="M548.076,208a6.087,6.087,0,0,1,2.579,4.789,2.136,2.136,0,0,0,.044-.843,5.065,5.065,0,0,0-1.9-3.518A2.162,2.162,0,0,0,548.076,208Z" transform="translate(-548.074 -207.993)" fill="#263238"></path></g></g></g><g id="Group_837" data-name="Group 837" transform="translate(1.63 3.744)"><g id="Group_836" data-name="Group 836"><g id="Group_835" data-name="Group 835"><path id="Path_186" data-name="Path 186" d="M550.582,215c.036,0,.06-.327.259-.807a4.544,4.544,0,0,1,1.188-1.617c1.217-1.025,2.454-1.542,2.4-1.623a3.232,3.232,0,0,0-.794.332,7.955,7.955,0,0,0-1.748,1.136,4.124,4.124,0,0,0-1.188,1.72A1.685,1.685,0,0,0,550.582,215Z" transform="translate(-550.566 -210.949)" fill="#263238"></path></g></g></g></g><g id="Group_841" data-name="Group 841" transform="translate(30.032 19.907)"><g id="Group_840" data-name="Group 840" transform="translate(0 0)"><g id="Group_839" data-name="Group 839"><path id="Path_187" data-name="Path 187" d="M494.349,207.85a7.254,7.254,0,0,0,1.33-.249c.847-.188,2.074-.457,3.6-.748a83.494,83.494,0,0,1,12.01-1.407,22.137,22.137,0,0,1,6.562.537,13.6,13.6,0,0,1,4.785,2.365,18.482,18.482,0,0,1,3.4,3.628,4.677,4.677,0,0,0-.658-1.188,13.046,13.046,0,0,0-2.511-2.729,13.468,13.468,0,0,0-4.887-2.539,21.756,21.756,0,0,0-6.708-.6,70.252,70.252,0,0,0-12.065,1.567c-1.52.339-2.739.664-3.573.913A6.348,6.348,0,0,0,494.349,207.85Z" transform="translate(-494.349 -204.895)" fill="#263238"></path></g></g></g><g id="Group_844" data-name="Group 844" transform="translate(61.432 6.437)"><g id="Group_843" data-name="Group 843"><g id="Group_842" data-name="Group 842"><path id="Path_188" data-name="Path 188" d="M494.632,194.288a5.485,5.485,0,0,0-.686-.537,12.8,12.8,0,0,0-2.193-1.2,14.467,14.467,0,0,0-9.072-.7,13.553,13.553,0,0,0-5.649,2.918,29.188,29.188,0,0,0-4.749,5.541,78.376,78.376,0,0,1-4.782,6.411,57.351,57.351,0,0,1-6.008,6.107c-4.426,3.847-9.2,6.965-14.041,8.537a22.2,22.2,0,0,1-7.059,1.173,11.094,11.094,0,0,1-5.955-1.474,14.027,14.027,0,0,1-3.716-3.532c-.931-1.213-1.663-2.315-2.256-3.218l-1.37-2.08a5.393,5.393,0,0,0-.506-.707,5.525,5.525,0,0,0,.417.763l1.288,2.134c.568.921,1.277,2.042,2.2,3.284a14.128,14.128,0,0,0,3.754,3.67,11.436,11.436,0,0,0,6.145,1.592,22.453,22.453,0,0,0,7.212-1.149c4.933-1.577,9.771-4.722,14.235-8.6a56.957,56.957,0,0,0,6.055-6.17,76.812,76.812,0,0,0,4.785-6.464,29.1,29.1,0,0,1,4.638-5.489,13.235,13.235,0,0,1,5.458-2.889,14.53,14.53,0,0,1,8.9.53A20.2,20.2,0,0,1,494.632,194.288Z" transform="translate(-426.589 -191.425)" fill="#263238"></path></g></g></g><g id="Group_847" data-name="Group 847" transform="translate(104.562 0.421)"><g id="Group_846" data-name="Group 846"><g id="Group_845" data-name="Group 845"><path id="Path_189" data-name="Path 189" d="M435.117,185.417s.251.019.705.036,1.11.058,1.915.148a24.963,24.963,0,0,1,11.7,4.507c.659.473,1.177.878,1.52,1.174s.547.446.547.446a19.327,19.327,0,0,0-2.023-1.68,24.156,24.156,0,0,0-11.734-4.52A19.192,19.192,0,0,0,435.117,185.417Z" transform="translate(-435.117 -185.409)" fill="#fafafa"></path></g></g></g><g id="Group_850" data-name="Group 850" transform="translate(88.514 10.152)"><g id="Group_849" data-name="Group 849"><g id="Group_848" data-name="Group 848"><path id="Path_190" data-name="Path 190" d="M450.887,195.14s.261.044.735.1,1.156.166,1.991.335a27.129,27.129,0,0,1,11.89,5.706c.654.546,1.168,1.009,1.507,1.344s.54.508.54.508a20.948,20.948,0,0,0-2-1.908,26.224,26.224,0,0,0-11.923-5.722A21.059,21.059,0,0,0,450.887,195.14Z" transform="translate(-450.887 -195.14)" fill="#fafafa"></path></g></g></g><g id="Group_853" data-name="Group 853" transform="translate(81.047 15.582)"><g id="Group_852" data-name="Group 852"><g id="Group_851" data-name="Group 851"><path id="Path_191" data-name="Path 191" d="M474.786,217.908s.069-.27.139-.768a11.074,11.074,0,0,0,.073-2.125,15.817,15.817,0,0,0-2.055-6.663,32.814,32.814,0,0,0-4.149-5.646c-1.193-1.341-1.968-2.136-1.968-2.136s.177.214.509.59l1.4,1.6a34.254,34.254,0,0,1,4.114,5.648,16.076,16.076,0,0,1,2.072,6.617,11.692,11.692,0,0,1-.04,2.116c-.019.249-.061.44-.075.571S474.786,217.908,474.786,217.908Z" transform="translate(-466.826 -200.57)" fill="#fafafa"></path></g></g></g><g id="Group_856" data-name="Group 856" transform="translate(71.405 17.397)"><g id="Group_855" data-name="Group 855"><g id="Group_854" data-name="Group 854"><path id="Path_192" data-name="Path 192" d="M484.129,207.825a4.956,4.956,0,0,0,.262-.768,8.34,8.34,0,0,0,.073-3.894,5.112,5.112,0,0,0-.234-.778c-.017.005.07.3.161.793a9.488,9.488,0,0,1-.071,3.861C484.21,207.525,484.112,207.82,484.129,207.825Z" transform="translate(-484.127 -202.385)" fill="#fafafa"></path></g></g></g><g id="Group_859" data-name="Group 859" transform="translate(68.323 23.742)"><g id="Group_858" data-name="Group 858"><g id="Group_857" data-name="Group 857"><path id="Path_193" data-name="Path 193" d="M480.838,220.016a12.262,12.262,0,0,0,1.6-1.192,15.739,15.739,0,0,0,4.968-8.124,12.216,12.216,0,0,0,.331-1.97s-.042.187-.1.527-.152.83-.3,1.425a16.3,16.3,0,0,1-4.945,8.086c-.46.408-.85.721-1.13.922S480.838,220.016,480.838,220.016Z" transform="translate(-480.838 -208.73)" fill="#fafafa"></path></g></g></g><g id="Group_862" data-name="Group 862" transform="translate(54.832 15.013)"><g id="Group_861" data-name="Group 861"><g id="Group_860" data-name="Group 860"><path id="Path_194" data-name="Path 194" d="M493.43,206.18s.513-.23,1.3-.685a25.032,25.032,0,0,0,5.54-4.388c.622-.66.964-1.106.964-1.106s-.1.1-.276.281l-.741.774a28.414,28.414,0,0,1-5.525,4.375l-.923.544C493.547,206.1,493.43,206.18,493.43,206.18Z" transform="translate(-493.43 -200.001)" fill="#fafafa"></path></g></g></g><g id="Group_865" data-name="Group 865" transform="translate(45.225 9.934)"><g id="Group_864" data-name="Group 864"><g id="Group_863" data-name="Group 863"><path id="Path_195" data-name="Path 195" d="M509.5,204.852s.016-.141.025-.4c.015-.364.03-.721.045-1.075.045-.907.14-2.159.325-3.532s.425-2.606.622-3.493l.241-1.048c.058-.248.08-.387.08-.387s-.049.132-.12.376-.165.6-.273,1.043a35.316,35.316,0,0,0-.654,3.495,34.823,34.823,0,0,0-.294,3.543c-.014.455-.018.823-.013,1.078S509.5,204.852,509.5,204.852Z" transform="translate(-509.483 -194.922)" fill="#fafafa"></path></g></g></g><g id="Group_868" data-name="Group 868" transform="translate(32.787 13.054)"><g id="Group_867" data-name="Group 867"><g id="Group_866" data-name="Group 866"><path id="Path_196" data-name="Path 196" d="M521.6,198.042a1.788,1.788,0,0,0,.012.326q.044.464.084.886c.083.747.233,1.776.465,2.9s.5,2.128.723,2.846q.132.405.274.847a2.15,2.15,0,0,0,.118.3,1.861,1.861,0,0,0-.079-.317l-.242-.854c-.2-.723-.46-1.727-.692-2.847s-.392-2.144-.494-2.887c-.037-.281-.076-.574-.117-.881A2.021,2.021,0,0,0,521.6,198.042Z" transform="translate(-521.597 -198.042)" fill="#fafafa"></path></g></g></g><g id="Group_871" data-name="Group 871" transform="translate(23.635 18.04)"><g id="Group_870" data-name="Group 870"><g id="Group_869" data-name="Group 869"><path id="Path_197" data-name="Path 197" d="M532.426,206.271a26.368,26.368,0,0,0-.674-3.243,13.27,13.27,0,0,0,.286,1.632A12.98,12.98,0,0,0,532.426,206.271Z" transform="translate(-531.748 -203.028)" fill="#fafafa"></path></g></g></g><g id="Group_874" data-name="Group 874" transform="translate(10.013 21.303)"><g id="Group_873" data-name="Group 873" transform="translate(0 0)"><g id="Group_872" data-name="Group 872"><path id="Path_198" data-name="Path 198" d="M546.049,210.924c.016,0-.039-.258-.083-.674s-.077-1-.091-1.636c0-.446-.005-.925-.009-1.642,0-.148,0-.315,0-.5a.682.682,0,0,0-.011-.184,3.645,3.645,0,0,0-.064.679c-.021.421-.038,1-.023,1.646a13.651,13.651,0,0,0,.123,1.643A3.7,3.7,0,0,0,546.049,210.924Z" transform="translate(-545.764 -206.291)" fill="#fafafa"></path></g></g></g><g id="Group_926" data-name="Group 926" transform="translate(7.109 20.764)"><g id="Group_880" data-name="Group 880" transform="translate(0.23 0)"><g id="Group_876" data-name="Group 876"><g id="Group_875" data-name="Group 875"><path id="Path_199" data-name="Path 199" d="M510.312,214.182c1.082-4.355,5.549-7.151,9.982-7.855s8.936.217,13.388.779,9.2.714,13.183-1.354a15.323,15.323,0,0,1,1.856,7.646l-2.343.052c-.483,3.377-3.576,5.957-6.907,6.692s-5.528.751-8.654-.615c-3.277-1.432-7.524-3.607-10.742-4.739s-6.79-1.692-10.03-.625" transform="translate(-510.045 -205.752)" fill="#455a64"></path></g></g><g id="Group_879" data-name="Group 879" transform="translate(34.513 1.039)"><g id="Group_878" data-name="Group 878"><g id="Group_877" data-name="Group 877"><path id="Path_200" data-name="Path 200" d="M512.345,206.791a7.9,7.9,0,0,0,.4.94,19.263,19.263,0,0,1,.823,2.308,15.583,15.583,0,0,1,.487,2.4c.074.623.077,1.013.11,1.014a3.357,3.357,0,0,0,.037-1.027,11.608,11.608,0,0,0-.434-2.441,13.539,13.539,0,0,0-.889-2.313A3.7,3.7,0,0,0,512.345,206.791Z" transform="translate(-512.342 -206.791)" fill="#263238"></path></g></g></g></g><g id="Group_883" data-name="Group 883" transform="translate(36.392 5.395)"><g id="Group_882" data-name="Group 882" transform="translate(0 0)"><g id="Group_881" data-name="Group 881"><path id="Path_201" data-name="Path 201" d="M510.093,211.5a33.3,33.3,0,0,0,2.47-.274,4.242,4.242,0,0,0-2.47.274Z" transform="translate(-510.093 -211.147)" fill="#263238"></path></g></g></g><g id="Group_886" data-name="Group 886" transform="translate(35.895 2.199)"><g id="Group_885" data-name="Group 885"><g id="Group_884" data-name="Group 884"><path id="Path_202" data-name="Path 202" d="M510.85,208.8c.04.047.462-.281,1.07-.493s1.139-.232,1.14-.294a2.344,2.344,0,0,0-2.21.787Z" transform="translate(-510.847 -207.951)" fill="#263238"></path></g></g></g><g id="Group_889" data-name="Group 889" transform="translate(0 0.208)"><g id="Group_888" data-name="Group 888"><g id="Group_887" data-name="Group 887"><path id="Path_203" data-name="Path 203" d="M543.632,207.365s-.238-.007-.692,0-1.124.021-1.989,0a39.39,39.39,0,0,1-7.3-.745,31.017,31.017,0,0,0-10.969-.306,14.852,14.852,0,0,0-6.061,2.433,11.062,11.062,0,0,0-4.161,5.65l-.066.22.213-.1a8.534,8.534,0,0,1,3.03-.818,19.327,19.327,0,0,1,7.419,1.326,63.258,63.258,0,0,1,6.568,2.678c1.026.478,2.027.948,3.012,1.376a17.62,17.62,0,0,0,2.943,1.073,14.676,14.676,0,0,0,5.6.221,10.341,10.341,0,0,0,4.312-1.638,8.319,8.319,0,0,0,2.414-2.513,7.81,7.81,0,0,0,.886-2.022,6.685,6.685,0,0,0,.171-.75,9.342,9.342,0,0,1-1.126,2.729,8.29,8.29,0,0,1-2.41,2.46,10.29,10.29,0,0,1-4.269,1.589,14.614,14.614,0,0,1-5.532-.244,17.434,17.434,0,0,1-2.91-1.073c-.981-.43-1.979-.9-3.005-1.382a62.8,62.8,0,0,0-6.583-2.7,19.44,19.44,0,0,0-7.5-1.34,8.688,8.688,0,0,0-3.1.839l.146.117a10.9,10.9,0,0,1,4.077-5.536,14.7,14.7,0,0,1,5.976-2.411,31.124,31.124,0,0,1,10.912.261,37.945,37.945,0,0,0,7.325.683C542.683,207.444,543.632,207.365,543.632,207.365Z" transform="translate(-512.392 -205.96)" fill="#263238"></path></g></g></g><g id="Group_892" data-name="Group 892" transform="translate(30.557 1.752)"><g id="Group_891" data-name="Group 891"><g id="Group_890" data-name="Group 890"><path id="Path_204" data-name="Path 204" d="M517.554,219.539a2.22,2.22,0,0,0,.173-.455,11.7,11.7,0,0,0,.337-1.284,15.921,15.921,0,0,0-.6-8.645,11.373,11.373,0,0,0-.513-1.224,2.221,2.221,0,0,0-.234-.427c-.035.016.261.642.608,1.7a17.529,17.529,0,0,1,.6,8.569C517.723,218.867,517.517,219.528,517.554,219.539Z" transform="translate(-516.709 -207.504)" fill="#fafafa"></path></g></g></g><g id="Group_895" data-name="Group 895" transform="translate(21.397 7.899)"><g id="Group_894" data-name="Group 894"><g id="Group_893" data-name="Group 893"><path id="Path_205" data-name="Path 205" d="M527.535,213.651a4.554,4.554,0,0,0-.158.842c-.086.52-.232,1.231-.434,2.009-.415,1.552-.816,2.8-.752,2.821a3.45,3.45,0,0,0,.336-.791c.179-.5.412-1.193.617-1.978a13.331,13.331,0,0,0,.379-2.041A2.868,2.868,0,0,0,527.535,213.651Z" transform="translate(-526.185 -213.651)" fill="#fafafa"></path></g></g></g><g id="Group_898" data-name="Group 898" transform="translate(23.698 4.508)"><g id="Group_897" data-name="Group 897" transform="translate(0 0)"><g id="Group_896" data-name="Group 896"><path id="Path_206" data-name="Path 206" d="M525.133,210.26c-.061.005-.033.735-.109,1.627s-.219,1.607-.16,1.622a5.811,5.811,0,0,0,.269-3.249Z" transform="translate(-524.851 -210.26)" fill="#fafafa"></path></g></g></g><g id="Group_901" data-name="Group 901" transform="translate(21.827 1.015)"><g id="Group_900" data-name="Group 900"><g id="Group_899" data-name="Group 899"><path id="Path_207" data-name="Path 207" d="M526.478,206.768c-.056.025.211.668.361,1.5s.137,1.529.2,1.533a4.242,4.242,0,0,0-.56-3.036Z" transform="translate(-526.47 -206.767)" fill="#fafafa"></path></g></g></g><g id="Group_904" data-name="Group 904" transform="translate(14.924 0.439)"><g id="Group_903" data-name="Group 903"><g id="Group_902" data-name="Group 902"><path id="Path_208" data-name="Path 208" d="M533.317,208.713a2.726,2.726,0,0,0,.611-2.522c-.061.006-.016.6-.188,1.289S533.265,208.678,533.317,208.713Z" transform="translate(-533.311 -206.191)" fill="#fafafa"></path></g></g></g><g id="Group_907" data-name="Group 907" transform="translate(9.55 2.51)"><g id="Group_906" data-name="Group 906"><g id="Group_905" data-name="Group 905"><path id="Path_209" data-name="Path 209" d="M536.808,214.33a3.7,3.7,0,0,0,.577-.787,15.215,15.215,0,0,0,1.844-4.32,3.78,3.78,0,0,0,.17-.961,5.624,5.624,0,0,0-.311.921c-.18.57-.448,1.351-.8,2.19s-.737,1.571-1.025,2.1A5.826,5.826,0,0,0,536.808,214.33Z" transform="translate(-536.806 -208.262)" fill="#fafafa"></path></g></g></g><g id="Group_910" data-name="Group 910" transform="translate(8.051 1.309)"><g id="Group_909" data-name="Group 909" transform="translate(0 0)"><g id="Group_908" data-name="Group 908"><path id="Path_210" data-name="Path 210" d="M540.237,207.072c-.031.05.143.214.31.444s.273.444.33.429.033-.287-.162-.552S540.264,207.024,540.237,207.072Z" transform="translate(-540.234 -207.061)" fill="#fafafa"></path></g></g></g><g id="Group_913" data-name="Group 913" transform="translate(0.15 6.338)"><g id="Group_912" data-name="Group 912"><g id="Group_911" data-name="Group 911"><path id="Path_211" data-name="Path 211" d="M513.148,214.521s.1-.085.287-.255a8.077,8.077,0,0,1,.873-.664,9.19,9.19,0,0,1,3.773-1.337,13.8,13.8,0,0,1,5.9.646,64.741,64.741,0,0,1,6.785,2.8,22.034,22.034,0,0,0,7.048,2.03,17.156,17.156,0,0,0,5.965-.52,16.643,16.643,0,0,0,3.757-1.5c.421-.229.737-.423.946-.565s.32-.212.32-.212-.116.064-.331.195-.532.323-.954.546a17.428,17.428,0,0,1-9.7,1.956,22.1,22.1,0,0,1-7.015-2.029,63.346,63.346,0,0,0-6.8-2.8,13.812,13.812,0,0,0-5.941-.627,9.094,9.094,0,0,0-3.785,1.376A6.185,6.185,0,0,0,513.148,214.521Z" transform="translate(-513.148 -212.09)" fill="#fafafa"></path></g></g></g><g id="Group_916" data-name="Group 916" transform="translate(16.824 4.06)"><g id="Group_915" data-name="Group 915" transform="translate(0 0)"><g id="Group_914" data-name="Group 914"><path id="Path_212" data-name="Path 212" d="M513.084,209.812s.249.115.707.307,1.125.455,1.965.744a20.71,20.71,0,0,0,6.816,1.129,25.441,25.441,0,0,0,6.822-1.148c1.7-.5,2.737-.866,2.737-.866s-.266.068-.741.21l-2.016.585a26.315,26.315,0,0,1-6.8,1.115,21.269,21.269,0,0,1-6.792-1.1c-.841-.279-1.516-.52-1.973-.711S513.084,209.812,513.084,209.812Z" transform="translate(-513.084 -209.812)" fill="#fafafa"></path></g></g></g><g id="Group_919" data-name="Group 919" transform="translate(6.679 1.102)"><g id="Group_918" data-name="Group 918"><g id="Group_917" data-name="Group 917"><path id="Path_213" data-name="Path 213" d="M514.408,208.749s.086-.051.244-.156.394-.251.707-.427a10.027,10.027,0,0,1,2.861-.987,15.846,15.846,0,0,1,4.489-.143c1.691.163,3.523.548,5.453.907a29.548,29.548,0,0,0,10.017.274,40.751,40.751,0,0,0,4.1-.747l-1.1.2c-.707.13-1.732.311-3.007.473a30.066,30.066,0,0,1-9.989-.3c-1.928-.359-3.764-.742-5.462-.9a15.719,15.719,0,0,0-4.513.167,9.8,9.8,0,0,0-2.866,1.023A6.7,6.7,0,0,0,514.408,208.749Z" transform="translate(-514.408 -206.854)" fill="#fafafa"></path></g></g></g><g id="Group_922" data-name="Group 922" transform="translate(0.374 2.171)"><g id="Group_921" data-name="Group 921"><g id="Group_920" data-name="Group 920"><path id="Path_214" data-name="Path 214" d="M523.78,214.008A17.394,17.394,0,0,1,526.529,211a11.4,11.4,0,0,1,9.158-2.395,14.622,14.622,0,0,1,4.976,2c1.449.843,2.743,1.661,3.912,2.208a10.5,10.5,0,0,0,2.89.963,4.934,4.934,0,0,0,.826.081c.189.005.288,0,.29-.019a14.791,14.791,0,0,1-3.842-1.355c-1.124-.577-2.381-1.417-3.833-2.292a14.536,14.536,0,0,0-5.132-2.1,11.717,11.717,0,0,0-5.537.392,11.375,11.375,0,0,0-3.945,2.235,10.764,10.764,0,0,0-2,2.3A3.43,3.43,0,0,0,523.78,214.008Z" transform="translate(-523.777 -207.922)" fill="#263238"></path></g></g></g><g id="Group_925" data-name="Group 925" transform="translate(14.264 3.129)"><g id="Group_924" data-name="Group 924" transform="translate(0 0)"><g id="Group_923" data-name="Group 923"><path id="Path_215" data-name="Path 215" d="M522.358,208.9a21.309,21.309,0,0,0,12.332.882c-.021-.158-2.789.209-6.2-.047C525.089,209.5,522.4,208.747,522.358,208.9Z" transform="translate(-522.358 -208.88)" fill="#263238"></path></g></g></g></g><g id="Group_929" data-name="Group 929" transform="translate(26.322 2.824)"><g id="Group_928" data-name="Group 928"><g id="Group_927" data-name="Group 927"><path id="Path_216" data-name="Path 216" d="M428.644,205.829l1.127-.478c.741-.309,1.835-.762,3.268-1.28a41.315,41.315,0,0,1,12.581-2.612,27.14,27.14,0,0,1,8.791,1.139,21.027,21.027,0,0,1,8.723,5.114c2.6,2.489,4.779,5.64,7.775,8.2a12.939,12.939,0,0,0,5.254,2.793,11.4,11.4,0,0,0,6.1-.362,16.658,16.658,0,0,0,5.365-3A26.534,26.534,0,0,0,491.739,211c2.4-3.113,4.306-6.4,6.492-9.261a45.78,45.78,0,0,1,6.927-7.492,28.2,28.2,0,0,1,7.536-4.674,21.316,21.316,0,0,1,12.635-1.261,17.642,17.642,0,0,1,3.319,1.114c.565.283.861.432,1.094.55l-1.085-.569a17.469,17.469,0,0,0-3.319-1.135,21.3,21.3,0,0,0-12.672,1.233,28.2,28.2,0,0,0-7.563,4.676,45.85,45.85,0,0,0-6.949,7.5c-2.191,2.869-4.1,6.153-6.5,9.257a26.415,26.415,0,0,1-4.1,4.327,16.533,16.533,0,0,1-5.331,2.979,11.3,11.3,0,0,1-6.044.361,12.861,12.861,0,0,1-5.212-2.771c-2.983-2.549-5.164-5.7-7.774-8.195a21.1,21.1,0,0,0-8.765-5.127,27.136,27.136,0,0,0-8.818-1.131,41.089,41.089,0,0,0-12.593,2.648C430.164,205.092,428.644,205.829,428.644,205.829Z" transform="translate(-428.644 -187.812)" fill="#fafafa"></path></g></g></g><g id="Group_932" data-name="Group 932" transform="translate(75.39 0)"><g id="Group_931" data-name="Group 931"><g id="Group_930" data-name="Group 930"><path id="Path_217" data-name="Path 217" d="M449.605,208.747a6.359,6.359,0,0,0,1.581-.059,9.78,9.78,0,0,0,3.965-1.641,18.306,18.306,0,0,0,4.424-4.6c1.4-1.959,2.813-4.207,4.64-6.3a38.812,38.812,0,0,1,11.067-8.8,41.434,41.434,0,0,1,3.914-1.8c.951-.362,1.478-.561,1.478-.561s-.536.173-1.493.524a38.857,38.857,0,0,0-3.933,1.773,38.408,38.408,0,0,0-11.112,8.795,77.016,77.016,0,0,0-4.639,6.313,18.355,18.355,0,0,1-4.388,4.593,9.862,9.862,0,0,1-3.93,1.662,8.2,8.2,0,0,1-1.165.1C449.747,208.743,449.605,208.747,449.605,208.747Z" transform="translate(-449.605 -184.988)" fill="#fafafa"></path></g></g></g><g id="Group_935" data-name="Group 935" transform="translate(29.355 10.832)"><g id="Group_934" data-name="Group 934" transform="translate(0 0)"><g id="Group_933" data-name="Group 933"><path id="Path_218" data-name="Path 218" d="M494.4,200.3s.107-.056.3-.171.483-.294.866-.5a29.3,29.3,0,0,1,30.013.935c.37.226.641.427.833.55s.293.189.293.189-.381-.292-1.1-.773a27.644,27.644,0,0,0-3.2-1.811,28.751,28.751,0,0,0-23.556-.735,27.806,27.806,0,0,0-3.3,1.609C494.8,200.035,494.4,200.3,494.4,200.3Z" transform="translate(-494.4 -195.82)" fill="#fafafa"></path></g></g></g><g id="Group_938" data-name="Group 938" transform="translate(49.679 10.458)"><g id="Group_937" data-name="Group 937"><g id="Group_936" data-name="Group 936"><path id="Path_219" data-name="Path 219" d="M501.742,204.756s.052-.138.126-.393.185-.621.334-1.071a25.581,25.581,0,0,1,3.29-6.6c.27-.39.495-.7.655-.912s.238-.336.238-.336a15.166,15.166,0,0,0-.953,1.205,23.066,23.066,0,0,0-3.3,6.618C501.852,204.178,501.742,204.756,501.742,204.756Z" transform="translate(-501.742 -195.446)" fill="#fafafa"></path></g></g></g><g id="Group_941" data-name="Group 941" transform="translate(38.958 10.48)"><g id="Group_940" data-name="Group 940"><g id="Group_939" data-name="Group 939"><path id="Path_220" data-name="Path 220" d="M515.7,195.468s-.068.555-.08,1.457a23.12,23.12,0,0,0,1,6.953c.265.863.486,1.376.486,1.376s-.032-.136-.109-.376c-.1-.346-.2-.685-.306-1.02a25.952,25.952,0,0,1-.994-6.933c0-.35.005-.7.007-1.065C515.711,195.608,515.7,195.468,515.7,195.468Z" transform="translate(-515.622 -195.468)" fill="#fafafa"></path></g></g></g><g id="Group_944" data-name="Group 944" transform="translate(62.106 20.797)"><g id="Group_943" data-name="Group 943" transform="translate(0 0)"><g id="Group_942" data-name="Group 942"><path id="Path_221" data-name="Path 221" d="M487.363,212.428a12.642,12.642,0,0,0,1.169-.742,19.275,19.275,0,0,0,4.693-4.727,12.9,12.9,0,0,0,.733-1.174s-.083.1-.216.3-.327.484-.578.829a21.405,21.405,0,0,1-4.675,4.711c-.344.252-.626.451-.825.584S487.363,212.428,487.363,212.428Z" transform="translate(-487.363 -205.785)" fill="#fafafa"></path></g></g></g><g id="Group_947" data-name="Group 947" transform="translate(77.096 17.181)"><g id="Group_946" data-name="Group 946" transform="translate(0 0)"><g id="Group_945" data-name="Group 945"><path id="Path_222" data-name="Path 222" d="M478.574,209.321a7.363,7.363,0,0,0,.242-1.039,11.484,11.484,0,0,0-.313-5.111,7.42,7.42,0,0,0-.367-1,1.644,1.644,0,0,0,.078.276c.058.174.134.429.218.746a12.756,12.756,0,0,1,.312,5.08c-.046.325-.09.587-.126.767A1.52,1.52,0,0,0,478.574,209.321Z" transform="translate(-478.135 -202.169)" fill="#fafafa"></path></g></g></g><g id="Group_950" data-name="Group 950" transform="translate(77.583 25.48)"><g id="Group_949" data-name="Group 949" transform="translate(0 0)"><g id="Group_948" data-name="Group 948"><path id="Path_223" data-name="Path 223" d="M476.049,222.278a16.732,16.732,0,0,0,.74-1.622,23.719,23.719,0,0,0,1.69-8.4,17.021,17.021,0,0,0-.055-1.783s-.009.171-.005.479,0,.753-.013,1.3a25.648,25.648,0,0,1-1.685,8.38c-.2.513-.366.925-.491,1.206S476.049,222.278,476.049,222.278Z" transform="translate(-476.049 -210.468)" fill="#fafafa"></path></g></g></g><g id="Group_953" data-name="Group 953" transform="translate(65.279 16.458)"><g id="Group_952" data-name="Group 952" transform="translate(0 0)"><g id="Group_951" data-name="Group 951"><path id="Path_224" data-name="Path 224" d="M490.756,201.446a6.322,6.322,0,0,1-.183.781,6.6,6.6,0,0,1-.369.712,1.657,1.657,0,0,0,.552-1.493Z" transform="translate(-490.203 -201.446)" fill="#fafafa"></path></g></g></g><g id="Group_956" data-name="Group 956" transform="translate(85.352 12.72)"><g id="Group_955" data-name="Group 955"><g id="Group_954" data-name="Group 954"><path id="Path_225" data-name="Path 225" d="M456.863,197.708s.229.134.65.358,1.025.561,1.755,1a35.2,35.2,0,0,1,9.842,8.873c.515.68.916,1.244,1.178,1.642s.424.609.424.609a26.571,26.571,0,0,0-1.543-2.295,33.735,33.735,0,0,0-9.863-8.893A26.556,26.556,0,0,0,456.863,197.708Z" transform="translate(-456.863 -197.708)" fill="#fafafa"></path></g></g></g><g id="Group_959" data-name="Group 959" transform="translate(97.383 2.694)"><g id="Group_958" data-name="Group 958"><g id="Group_957" data-name="Group 957"><path id="Path_226" data-name="Path 226" d="M443.959,187.682s.221.061.625.153.985.233,1.7.43a35.3,35.3,0,0,1,10.447,4.819c.613.415,1.1.763,1.43,1.013s.522.375.522.375-.693-.6-1.91-1.449a33.322,33.322,0,0,0-10.47-4.829C444.867,187.819,443.959,187.682,443.959,187.682Z" transform="translate(-443.959 -187.682)" fill="#fafafa"></path></g></g></g><g id="Group_962" data-name="Group 962" transform="translate(15.77 20.308)"><g id="Group_961" data-name="Group 961" transform="translate(0 0)"><g id="Group_960" data-name="Group 960"><path id="Path_227" data-name="Path 227" d="M539.992,205.3a3.829,3.829,0,1,0,.2.6A1.92,1.92,0,0,0,539.992,205.3Z" transform="translate(-539.984 -205.296)" fill="#fafafa"></path></g></g></g></g></g><g id="Group_979" data-name="Group 979" transform="translate(22.871 134.353)"><g id="Group_966" data-name="Group 966" transform="translate(0 0)"><g id="Group_965" data-name="Group 965"><path id="Path_228" data-name="Path 228" d="M599.615,204.85s-4.514.936-6.44,1.363c-.624.139-1.268.044-1.9.151a23.581,23.581,0,0,1-8.346-.15c-1.915-.705-1.994,1.74.069,2.79a10.316,10.316,0,0,0,3.328,1.164l-4.965,3.994a1.3,1.3,0,0,0-.474.831l-1.271,8.8a1.5,1.5,0,0,0,.973,1.738.745.745,0,0,0,.95-.344l-.14,1.183a1.553,1.553,0,0,0,3.059.518c0-.025.009-.049.013-.074l1.745.986s1.159,1.2,2.409-.466c1.032-1.38,4.129-6.859,4.129-6.859s13.183-5.553,12.972-7.771Z" transform="translate(-579.588 -204.85)" fill="#ffbe9d"></path></g></g><g id="Group_969" data-name="Group 969" transform="translate(4.798 9.369)"><g id="Group_968" data-name="Group 968"><g id="Group_967" data-name="Group 967"><path id="Path_229" data-name="Path 229" d="M595.715,226.887a13.158,13.158,0,0,0,.355-2.129c.2-1.3.578-3.13.842-5.127.183-.972.41-1.955.629-2.745a1.572,1.572,0,0,1,.709-.814l.92-.585a8.939,8.939,0,0,0,1.76-1.261,9,9,0,0,0-1.948.945l-.953.53a2,2,0,0,0-.933,1.007,24.889,24.889,0,0,0-.7,2.831c-.269,2.036-.578,3.826-.694,5.175A6.816,6.816,0,0,0,595.715,226.887Z" transform="translate(-595.642 -214.219)" fill="#eb996e"></path></g></g></g><g id="Group_972" data-name="Group 972" transform="translate(1.924 8.223)"><g id="Group_971" data-name="Group 971"><g id="Group_970" data-name="Group 970"><path id="Path_230" data-name="Path 230" d="M598.282,225.186c.2.037.532-3.158,1.344-6.975a6.076,6.076,0,0,1,.847-2.477,15.153,15.153,0,0,1,1.616-1.524,8.306,8.306,0,0,1,1.222-.859c.307-.168.5-.212.494-.254s-.218-.053-.575.068a5.759,5.759,0,0,0-1.363.751,12.219,12.219,0,0,0-1.75,1.5,5.973,5.973,0,0,0-1,2.686,39.844,39.844,0,0,0-.752,5A9.578,9.578,0,0,0,598.282,225.186Z" transform="translate(-598.254 -213.073)" fill="#eb996e"></path></g></g></g><g id="Group_975" data-name="Group 975" transform="translate(6.607 11.998)"><g id="Group_974" data-name="Group 974"><g id="Group_973" data-name="Group 973"><path id="Path_231" data-name="Path 231" d="M599.121,216.856a6.955,6.955,0,0,0-1.725.815l-.84.464a3.03,3.03,0,0,0-.948.69,2.891,2.891,0,0,0-.556,1.167c-.127.408-.256.823-.388,1.25a40.489,40.489,0,0,0-1.65,6.283,40.629,40.629,0,0,0,2.144-6.117c.128-.426.253-.84.376-1.248a2.579,2.579,0,0,1,.443-1.029,2.782,2.782,0,0,1,.8-.625l.807-.519A6.987,6.987,0,0,0,599.121,216.856Z" transform="translate(-592.997 -216.848)" fill="#eb996e"></path></g></g></g><g id="Group_978" data-name="Group 978" transform="translate(4.845 2.468)"><g id="Group_977" data-name="Group 977"><g id="Group_976" data-name="Group 976"><path id="Path_232" data-name="Path 232" d="M600.884,207.352c-.069-.2-1.929.526-4.011,1.741-2.1,1.189-3.629,2.469-3.522,2.594.081.094,1.693-.962,3.782-2.143l2.661-1.525A5.934,5.934,0,0,0,600.884,207.352Z" transform="translate(-593.346 -207.318)" fill="#eb996e"></path></g></g></g></g></g></g></svg>